solid OpenSCAD_Model
  facet normal -0.906309 0.422615 0
    outer loop
      vertex -7.04769 2.56515 14
      vertex -6.49519 3.75 19
      vertex -6.49519 3.75 14
    endloop
  endfacet
  facet normal -0.906309 0.422615 0
    outer loop
      vertex -6.49519 3.75 19
      vertex -7.04769 2.56515 14
      vertex -7.04769 2.56515 19
    endloop
  endfacet
  facet normal 0.965925 0.258824 0
    outer loop
      vertex 7.38606 1.30236 19
      vertex 7.04769 2.56515 14
      vertex 7.04769 2.56515 19
    endloop
  endfacet
  facet normal 0.965925 0.258824 0
    outer loop
      vertex 7.04769 2.56515 14
      vertex 7.38606 1.30236 19
      vertex 7.38606 1.30236 14
    endloop
  endfacet
  facet normal 0.996195 0.0871544 0
    outer loop
      vertex 7.5 0 19
      vertex 7.38606 1.30236 14
      vertex 7.38606 1.30236 19
    endloop
  endfacet
  facet normal 0.996195 0.0871544 0
    outer loop
      vertex 7.38606 1.30236 14
      vertex 7.5 0 19
      vertex 7.5 0 14
    endloop
  endfacet
  facet normal 0.906309 0.422615 0
    outer loop
      vertex 7.04769 2.56515 19
      vertex 6.49519 3.75 14
      vertex 6.49519 3.75 19
    endloop
  endfacet
  facet normal 0.906309 0.422615 0
    outer loop
      vertex 6.49519 3.75 14
      vertex 7.04769 2.56515 19
      vertex 7.04769 2.56515 14
    endloop
  endfacet
  facet normal -0.573577 -0.819152 0
    outer loop
      vertex -4.82091 -5.74533 14
      vertex -3.75 -6.49519 19
      vertex -4.82091 -5.74533 19
    endloop
  endfacet
  facet normal -0.573577 -0.819152 -0
    outer loop
      vertex -3.75 -6.49519 19
      vertex -4.82091 -5.74533 14
      vertex -3.75 -6.49519 14
    endloop
  endfacet
  facet normal 0.819152 -0.573577 0
    outer loop
      vertex 5.74533 -4.82091 19
      vertex 6.49519 -3.75 14
      vertex 6.49519 -3.75 19
    endloop
  endfacet
  facet normal 0.819152 -0.573577 0
    outer loop
      vertex 6.49519 -3.75 14
      vertex 5.74533 -4.82091 19
      vertex 5.74533 -4.82091 14
    endloop
  endfacet
  facet normal -0.0871544 -0.996195 0
    outer loop
      vertex -1.30236 -7.38606 14
      vertex 0 -7.5 19
      vertex -1.30236 -7.38606 19
    endloop
  endfacet
  facet normal -0.0871544 -0.996195 -0
    outer loop
      vertex 0 -7.5 19
      vertex -1.30236 -7.38606 14
      vertex 0 -7.5 14
    endloop
  endfacet
  facet normal -0.573577 0.819152 0
    outer loop
      vertex -3.75 6.49519 14
      vertex -4.82091 5.74533 19
      vertex -3.75 6.49519 19
    endloop
  endfacet
  facet normal -0.573577 0.819152 0
    outer loop
      vertex -4.82091 5.74533 19
      vertex -3.75 6.49519 14
      vertex -4.82091 5.74533 14
    endloop
  endfacet
  facet normal -0.258824 -0.965925 0
    outer loop
      vertex -2.56515 -7.04769 14
      vertex -1.30236 -7.38606 19
      vertex -2.56515 -7.04769 19
    endloop
  endfacet
  facet normal -0.258824 -0.965925 -0
    outer loop
      vertex -1.30236 -7.38606 19
      vertex -2.56515 -7.04769 14
      vertex -1.30236 -7.38606 14
    endloop
  endfacet
  facet normal 0.422615 -0.906309 0
    outer loop
      vertex 2.56515 -7.04769 14
      vertex 3.75 -6.49519 19
      vertex 2.56515 -7.04769 19
    endloop
  endfacet
  facet normal 0.422615 -0.906309 0
    outer loop
      vertex 3.75 -6.49519 19
      vertex 2.56515 -7.04769 14
      vertex 3.75 -6.49519 14
    endloop
  endfacet
  facet normal 0.707107 -0.707107 0
    outer loop
      vertex 4.82091 -5.74533 19
      vertex 5.74533 -4.82091 14
      vertex 5.74533 -4.82091 19
    endloop
  endfacet
  facet normal 0.707107 -0.707107 0
    outer loop
      vertex 5.74533 -4.82091 14
      vertex 4.82091 -5.74533 19
      vertex 4.82091 -5.74533 14
    endloop
  endfacet
  facet normal -0.996195 -0.0871544 0
    outer loop
      vertex -7.38606 -1.30236 14
      vertex -7.5 0 19
      vertex -7.5 0 14
    endloop
  endfacet
  facet normal -0.996195 -0.0871544 0
    outer loop
      vertex -7.5 0 19
      vertex -7.38606 -1.30236 14
      vertex -7.38606 -1.30236 19
    endloop
  endfacet
  facet normal 0.573577 -0.819152 0
    outer loop
      vertex 3.75 -6.49519 14
      vertex 4.82091 -5.74533 19
      vertex 3.75 -6.49519 19
    endloop
  endfacet
  facet normal 0.573577 -0.819152 0
    outer loop
      vertex 4.82091 -5.74533 19
      vertex 3.75 -6.49519 14
      vertex 4.82091 -5.74533 14
    endloop
  endfacet
  facet normal 0 0 -1
    outer loop
      vertex 1.95 -2.75 0
      vertex 8.5 0 0
      vertex 8.37087 -1.47601 0
    endloop
  endfacet
  facet normal 0 0 -1
    outer loop
      vertex 1.95 -2.75 0
      vertex 8.37087 -1.47601 0
      vertex 7.98739 -2.90717 0
    endloop
  endfacet
  facet normal 0 0 -1
    outer loop
      vertex 1.95 2.75 0
      vertex 8.5 0 0
      vertex 1.95 -2.75 0
    endloop
  endfacet
  facet normal 0 0 -1
    outer loop
      vertex 1.95 -2.75 0
      vertex 7.98739 -2.90717 0
      vertex 7.36122 -4.25 0
    endloop
  endfacet
  facet normal 0 0 -1
    outer loop
      vertex 8.5 0 0
      vertex 1.95 2.75 0
      vertex 8.37087 1.47601 0
    endloop
  endfacet
  facet normal 0 0 -1
    outer loop
      vertex 1.95 -2.75 0
      vertex 7.36122 -4.25 0
      vertex 6.51138 -5.46369 0
    endloop
  endfacet
  facet normal 0 0 -1
    outer loop
      vertex 8.37087 1.47601 0
      vertex 1.95 2.75 0
      vertex 7.98739 2.90717 0
    endloop
  endfacet
  facet normal 0 0 -1
    outer loop
      vertex 1.95 -2.75 0
      vertex 6.51138 -5.46369 0
      vertex 5.46369 -6.51138 0
    endloop
  endfacet
  facet normal -0 0 -1
    outer loop
      vertex 7.98739 2.90717 0
      vertex 1.95 2.75 0
      vertex 7.36122 4.25 0
    endloop
  endfacet
  facet normal 0 0 -1
    outer loop
      vertex 1.95 -2.75 0
      vertex 5.46369 -6.51138 0
      vertex 4.25 -7.36122 0
    endloop
  endfacet
  facet normal -0 0 -1
    outer loop
      vertex 7.36122 4.25 0
      vertex 1.95 2.75 0
      vertex 6.51138 5.46369 0
    endloop
  endfacet
  facet normal 0 0 -1
    outer loop
      vertex 1.95 -2.75 0
      vertex 4.25 -7.36122 0
      vertex 2.90717 -7.98739 0
    endloop
  endfacet
  facet normal -0 0 -1
    outer loop
      vertex 6.51138 5.46369 0
      vertex 1.95 2.75 0
      vertex 5.46369 6.51138 0
    endloop
  endfacet
  facet normal -0 0 -1
    outer loop
      vertex 5.46369 6.51138 0
      vertex 1.95 2.75 0
      vertex 4.25 7.36122 0
    endloop
  endfacet
  facet normal 0 0 -1
    outer loop
      vertex 1.47601 -8.37087 0
      vertex 1.95 -2.75 0
      vertex 2.90717 -7.98739 0
    endloop
  endfacet
  facet normal 0 0 -1
    outer loop
      vertex 0 -8.5 0
      vertex 1.95 -2.75 0
      vertex 1.47601 -8.37087 0
    endloop
  endfacet
  facet normal 0 0 -1
    outer loop
      vertex -1.95 -2.75 0
      vertex 0 -8.5 0
      vertex -1.47601 -8.37087 0
    endloop
  endfacet
  facet normal 0 0 -1
    outer loop
      vertex 0 -8.5 0
      vertex -1.95 -2.75 0
      vertex 1.95 -2.75 0
    endloop
  endfacet
  facet normal 0 0 -1
    outer loop
      vertex -4.25 -7.36122 0
      vertex -1.95 -2.75 0
      vertex -2.90717 -7.98739 0
    endloop
  endfacet
  facet normal 0 0 -1
    outer loop
      vertex -2.90717 -7.98739 0
      vertex -1.95 -2.75 0
      vertex -1.47601 -8.37087 0
    endloop
  endfacet
  facet normal -0 0 -1
    outer loop
      vertex 4.25 7.36122 0
      vertex 1.95 2.75 0
      vertex 2.90717 7.98739 0
    endloop
  endfacet
  facet normal 0 0 -1
    outer loop
      vertex 1.95 2.75 0
      vertex 1.47601 8.37087 0
      vertex 2.90717 7.98739 0
    endloop
  endfacet
  facet normal 0 0 -1
    outer loop
      vertex 1.95 2.75 0
      vertex 0 8.5 0
      vertex 1.47601 8.37087 0
    endloop
  endfacet
  facet normal 0 0 -1
    outer loop
      vertex -1.95 2.75 0
      vertex 0 8.5 0
      vertex 1.95 2.75 0
    endloop
  endfacet
  facet normal 0 0 -1
    outer loop
      vertex 0 8.5 0
      vertex -1.95 2.75 0
      vertex -1.47601 8.37087 0
    endloop
  endfacet
  facet normal 0 0 -1
    outer loop
      vertex -5.46369 -6.51138 0
      vertex -1.95 -2.75 0
      vertex -4.25 -7.36122 0
    endloop
  endfacet
  facet normal 0 0 -1
    outer loop
      vertex -1.95 2.75 0
      vertex -2.90717 7.98739 0
      vertex -1.47601 8.37087 0
    endloop
  endfacet
  facet normal 0 0 -1
    outer loop
      vertex -6.51138 -5.46369 0
      vertex -1.95 -2.75 0
      vertex -5.46369 -6.51138 0
    endloop
  endfacet
  facet normal 0 0 -1
    outer loop
      vertex -1.95 2.75 0
      vertex -4.25 7.36122 0
      vertex -2.90717 7.98739 0
    endloop
  endfacet
  facet normal 0 0 -1
    outer loop
      vertex -7.36122 -4.25 0
      vertex -1.95 -2.75 0
      vertex -6.51138 -5.46369 0
    endloop
  endfacet
  facet normal 0 0 -1
    outer loop
      vertex -1.95 2.75 0
      vertex -5.46369 6.51138 0
      vertex -4.25 7.36122 0
    endloop
  endfacet
  facet normal 0 0 -1
    outer loop
      vertex -7.98739 -2.90717 0
      vertex -1.95 -2.75 0
      vertex -7.36122 -4.25 0
    endloop
  endfacet
  facet normal 0 0 -1
    outer loop
      vertex -1.95 2.75 0
      vertex -6.51138 5.46369 0
      vertex -5.46369 6.51138 0
    endloop
  endfacet
  facet normal 0 0 -1
    outer loop
      vertex -8.37087 -1.47601 0
      vertex -1.95 -2.75 0
      vertex -7.98739 -2.90717 0
    endloop
  endfacet
  facet normal 0 0 -1
    outer loop
      vertex -1.95 2.75 0
      vertex -7.36122 4.25 0
      vertex -6.51138 5.46369 0
    endloop
  endfacet
  facet normal 0 0 -1
    outer loop
      vertex -8.5 0 0
      vertex -1.95 -2.75 0
      vertex -8.37087 -1.47601 0
    endloop
  endfacet
  facet normal 0 0 -1
    outer loop
      vertex -1.95 2.75 0
      vertex -7.98739 2.90717 0
      vertex -7.36122 4.25 0
    endloop
  endfacet
  facet normal 0 0 -1
    outer loop
      vertex -1.95 -2.75 0
      vertex -8.5 0 0
      vertex -1.95 2.75 0
    endloop
  endfacet
  facet normal -0 0 -1
    outer loop
      vertex -1.95 2.75 0
      vertex -8.37087 1.47601 0
      vertex -7.98739 2.90717 0
    endloop
  endfacet
  facet normal 0 0 -1
    outer loop
      vertex -1.95 2.75 0
      vertex -8.5 0 0
      vertex -8.37087 1.47601 0
    endloop
  endfacet
  facet normal 0.0871544 -0.996195 0
    outer loop
      vertex 0 -7.5 14
      vertex 1.30236 -7.38606 19
      vertex 0 -7.5 19
    endloop
  endfacet
  facet normal 0.0871544 -0.996195 0
    outer loop
      vertex 1.30236 -7.38606 19
      vertex 0 -7.5 14
      vertex 1.30236 -7.38606 14
    endloop
  endfacet
  facet normal -0.819152 0.573577 0
    outer loop
      vertex -6.49519 3.75 14
      vertex -5.74533 4.82091 19
      vertex -5.74533 4.82091 14
    endloop
  endfacet
  facet normal -0.819152 0.573577 0
    outer loop
      vertex -5.74533 4.82091 19
      vertex -6.49519 3.75 14
      vertex -6.49519 3.75 19
    endloop
  endfacet
  facet normal -0.422615 0.906309 0
    outer loop
      vertex -2.56515 7.04769 14
      vertex -3.75 6.49519 19
      vertex -2.56515 7.04769 19
    endloop
  endfacet
  facet normal -0.422615 0.906309 0
    outer loop
      vertex -3.75 6.49519 19
      vertex -2.56515 7.04769 14
      vertex -3.75 6.49519 14
    endloop
  endfacet
  facet normal -0.965925 -0.258824 0
    outer loop
      vertex -7.04769 -2.56515 14
      vertex -7.38606 -1.30236 19
      vertex -7.38606 -1.30236 14
    endloop
  endfacet
  facet normal -0.965925 -0.258824 0
    outer loop
      vertex -7.38606 -1.30236 19
      vertex -7.04769 -2.56515 14
      vertex -7.04769 -2.56515 19
    endloop
  endfacet
  facet normal 0 0 1
    outer loop
      vertex 5 3 19
      vertex 7.5 0 19
      vertex 7.38606 1.30236 19
    endloop
  endfacet
  facet normal 0 0 1
    outer loop
      vertex 5 3 19
      vertex 7.38606 1.30236 19
      vertex 7.04769 2.56515 19
    endloop
  endfacet
  facet normal 0 0 1
    outer loop
      vertex 5 -3 19
      vertex 7.5 0 19
      vertex 5 3 19
    endloop
  endfacet
  facet normal -0 0 1
    outer loop
      vertex 5 3 19
      vertex 7.04769 2.56515 19
      vertex 6.49519 3.75 19
    endloop
  endfacet
  facet normal 0 0 1
    outer loop
      vertex 7.5 0 19
      vertex 5 -3 19
      vertex 7.38606 -1.30236 19
    endloop
  endfacet
  facet normal 0 0 1
    outer loop
      vertex 4.87938 3.68404 19
      vertex 6.49519 3.75 19
      vertex 5.74533 4.82091 19
    endloop
  endfacet
  facet normal 0 0 1
    outer loop
      vertex 7.38606 -1.30236 19
      vertex 5 -3 19
      vertex 7.04769 -2.56515 19
    endloop
  endfacet
  facet normal 0 0 1
    outer loop
      vertex 7.04769 -2.56515 19
      vertex 5 -3 19
      vertex 6.49519 -3.75 19
    endloop
  endfacet
  facet normal 0 0 1
    outer loop
      vertex 6.49519 3.75 19
      vertex 4.96961 3.3473 19
      vertex 5 3 19
    endloop
  endfacet
  facet normal 0 0 1
    outer loop
      vertex 6.49519 3.75 19
      vertex 4.87938 3.68404 19
      vertex 4.96961 3.3473 19
    endloop
  endfacet
  facet normal 0 0 1
    outer loop
      vertex 4.53209 4.28557 19
      vertex 5.74533 4.82091 19
      vertex 4.82091 5.74533 19
    endloop
  endfacet
  facet normal 0 0 1
    outer loop
      vertex 5.74533 4.82091 19
      vertex 4.73205 4 19
      vertex 4.87938 3.68404 19
    endloop
  endfacet
  facet normal 0 0 1
    outer loop
      vertex 5.74533 4.82091 19
      vertex 4.53209 4.28557 19
      vertex 4.73205 4 19
    endloop
  endfacet
  facet normal 0 0 1
    outer loop
      vertex 4.82091 5.74533 19
      vertex 4.28557 4.53209 19
      vertex 4.53209 4.28557 19
    endloop
  endfacet
  facet normal 0 0 1
    outer loop
      vertex 4.82091 5.74533 19
      vertex 4 4.73205 19
      vertex 4.28557 4.53209 19
    endloop
  endfacet
  facet normal 0 0 1
    outer loop
      vertex 3.68404 4.87938 19
      vertex 4.82091 5.74533 19
      vertex 3.75 6.49519 19
    endloop
  endfacet
  facet normal 0 0 1
    outer loop
      vertex 4.82091 5.74533 19
      vertex 3.68404 4.87938 19
      vertex 4 4.73205 19
    endloop
  endfacet
  facet normal 0 0 1
    outer loop
      vertex 3.75 6.49519 19
      vertex 3.3473 4.96961 19
      vertex 3.68404 4.87938 19
    endloop
  endfacet
  facet normal 0 0 1
    outer loop
      vertex 3.75 6.49519 19
      vertex 3 5 19
      vertex 3.3473 4.96961 19
    endloop
  endfacet
  facet normal 0 0 1
    outer loop
      vertex 2.56515 7.04769 19
      vertex 3 5 19
      vertex 3.75 6.49519 19
    endloop
  endfacet
  facet normal 0 0 1
    outer loop
      vertex 1.30236 7.38606 19
      vertex 3 5 19
      vertex 2.56515 7.04769 19
    endloop
  endfacet
  facet normal 0 0 1
    outer loop
      vertex 0 7.5 19
      vertex 3 5 19
      vertex 1.30236 7.38606 19
    endloop
  endfacet
  facet normal 0 0 1
    outer loop
      vertex -3 5 19
      vertex 0 7.5 19
      vertex -1.30236 7.38606 19
    endloop
  endfacet
  facet normal 0 0 1
    outer loop
      vertex -3 5 19
      vertex -1.30236 7.38606 19
      vertex -2.56515 7.04769 19
    endloop
  endfacet
  facet normal 0 0 1
    outer loop
      vertex 0 7.5 19
      vertex -3 5 19
      vertex 3 5 19
    endloop
  endfacet
  facet normal -0 0 1
    outer loop
      vertex -3.75 6.49519 19
      vertex -3 5 19
      vertex -2.56515 7.04769 19
    endloop
  endfacet
  facet normal 0 0 1
    outer loop
      vertex -3 5 19
      vertex -3.75 6.49519 19
      vertex -3.3473 4.96961 19
    endloop
  endfacet
  facet normal 0 0 1
    outer loop
      vertex -3.3473 4.96961 19
      vertex -3.75 6.49519 19
      vertex -3.68404 4.87938 19
    endloop
  endfacet
  facet normal -0 0 1
    outer loop
      vertex -4.82091 5.74533 19
      vertex -3.68404 4.87938 19
      vertex -3.75 6.49519 19
    endloop
  endfacet
  facet normal 0 0 1
    outer loop
      vertex -3.68404 4.87938 19
      vertex -4.82091 5.74533 19
      vertex -4 4.73205 19
    endloop
  endfacet
  facet normal 0 0 1
    outer loop
      vertex -4 4.73205 19
      vertex -4.82091 5.74533 19
      vertex -4.28557 4.53209 19
    endloop
  endfacet
  facet normal 0 0 1
    outer loop
      vertex -4.28557 4.53209 19
      vertex -4.82091 5.74533 19
      vertex -4.53209 4.28557 19
    endloop
  endfacet
  facet normal -0 0 1
    outer loop
      vertex -5.74533 4.82091 19
      vertex -4.53209 4.28557 19
      vertex -4.82091 5.74533 19
    endloop
  endfacet
  facet normal 0 0 1
    outer loop
      vertex -4.53209 4.28557 19
      vertex -5.74533 4.82091 19
      vertex -4.73205 4 19
    endloop
  endfacet
  facet normal 0 0 1
    outer loop
      vertex -4.73205 4 19
      vertex -5.74533 4.82091 19
      vertex -4.87938 3.68404 19
    endloop
  endfacet
  facet normal -0 0 1
    outer loop
      vertex -6.49519 3.75 19
      vertex -4.87938 3.68404 19
      vertex -5.74533 4.82091 19
    endloop
  endfacet
  facet normal 0 0 1
    outer loop
      vertex -4.96961 3.3473 19
      vertex -6.49519 3.75 19
      vertex -5 3 19
    endloop
  endfacet
  facet normal 0 0 1
    outer loop
      vertex -4.87938 3.68404 19
      vertex -6.49519 3.75 19
      vertex -4.96961 3.3473 19
    endloop
  endfacet
  facet normal -0 0 1
    outer loop
      vertex 4.96961 -3.3473 19
      vertex 6.49519 -3.75 19
      vertex 5 -3 19
    endloop
  endfacet
  facet normal -0 0 1
    outer loop
      vertex 4.87938 -3.68404 19
      vertex 6.49519 -3.75 19
      vertex 4.96961 -3.3473 19
    endloop
  endfacet
  facet normal 0 0 1
    outer loop
      vertex 6.49519 -3.75 19
      vertex 4.87938 -3.68404 19
      vertex 5.74533 -4.82091 19
    endloop
  endfacet
  facet normal -0 0 1
    outer loop
      vertex 4.73205 -4 19
      vertex 5.74533 -4.82091 19
      vertex 4.87938 -3.68404 19
    endloop
  endfacet
  facet normal -0 0 1
    outer loop
      vertex 4.53209 -4.28557 19
      vertex 5.74533 -4.82091 19
      vertex 4.73205 -4 19
    endloop
  endfacet
  facet normal 0 0 1
    outer loop
      vertex 5.74533 -4.82091 19
      vertex 4.53209 -4.28557 19
      vertex 4.82091 -5.74533 19
    endloop
  endfacet
  facet normal -0 0 1
    outer loop
      vertex 4.28557 -4.53209 19
      vertex 4.82091 -5.74533 19
      vertex 4.53209 -4.28557 19
    endloop
  endfacet
  facet normal -0 0 1
    outer loop
      vertex 4 -4.73205 19
      vertex 4.82091 -5.74533 19
      vertex 4.28557 -4.53209 19
    endloop
  endfacet
  facet normal -0 0 1
    outer loop
      vertex 3.68404 -4.87938 19
      vertex 4.82091 -5.74533 19
      vertex 4 -4.73205 19
    endloop
  endfacet
  facet normal 0 0 1
    outer loop
      vertex 4.82091 -5.74533 19
      vertex 3.68404 -4.87938 19
      vertex 3.75 -6.49519 19
    endloop
  endfacet
  facet normal -0 0 1
    outer loop
      vertex 3.3473 -4.96961 19
      vertex 3.75 -6.49519 19
      vertex 3.68404 -4.87938 19
    endloop
  endfacet
  facet normal -0 0 1
    outer loop
      vertex 3 -5 19
      vertex 3.75 -6.49519 19
      vertex 3.3473 -4.96961 19
    endloop
  endfacet
  facet normal 0 0 1
    outer loop
      vertex 3 -5 19
      vertex 2.56515 -7.04769 19
      vertex 3.75 -6.49519 19
    endloop
  endfacet
  facet normal 0 0 1
    outer loop
      vertex 3 -5 19
      vertex 1.30236 -7.38606 19
      vertex 2.56515 -7.04769 19
    endloop
  endfacet
  facet normal 0 0 1
    outer loop
      vertex 3 -5 19
      vertex 0 -7.5 19
      vertex 1.30236 -7.38606 19
    endloop
  endfacet
  facet normal -0 0 1
    outer loop
      vertex -3 -5 19
      vertex 0 -7.5 19
      vertex 3 -5 19
    endloop
  endfacet
  facet normal 0 0 1
    outer loop
      vertex 0 -7.5 19
      vertex -3 -5 19
      vertex -1.30236 -7.38606 19
    endloop
  endfacet
  facet normal 0 0 1
    outer loop
      vertex -1.30236 -7.38606 19
      vertex -3 -5 19
      vertex -2.56515 -7.04769 19
    endloop
  endfacet
  facet normal 0 0 1
    outer loop
      vertex -3.75 -6.49519 19
      vertex -3 -5 19
      vertex -3.3473 -4.96961 19
    endloop
  endfacet
  facet normal 0 0 1
    outer loop
      vertex -3.75 -6.49519 19
      vertex -3.3473 -4.96961 19
      vertex -3.68404 -4.87938 19
    endloop
  endfacet
  facet normal 0 0 1
    outer loop
      vertex -3 -5 19
      vertex -3.75 -6.49519 19
      vertex -2.56515 -7.04769 19
    endloop
  endfacet
  facet normal 0 0 1
    outer loop
      vertex -4.82091 -5.74533 19
      vertex -3.68404 -4.87938 19
      vertex -4 -4.73205 19
    endloop
  endfacet
  facet normal 0 0 1
    outer loop
      vertex -4.82091 -5.74533 19
      vertex -4 -4.73205 19
      vertex -4.28557 -4.53209 19
    endloop
  endfacet
  facet normal 0 0 1
    outer loop
      vertex -4.82091 -5.74533 19
      vertex -4.28557 -4.53209 19
      vertex -4.53209 -4.28557 19
    endloop
  endfacet
  facet normal 0 0 1
    outer loop
      vertex -5.74533 -4.82091 19
      vertex -4.53209 -4.28557 19
      vertex -4.73205 -4 19
    endloop
  endfacet
  facet normal 0 0 1
    outer loop
      vertex -3.68404 -4.87938 19
      vertex -4.82091 -5.74533 19
      vertex -3.75 -6.49519 19
    endloop
  endfacet
  facet normal 0 0 1
    outer loop
      vertex -5.74533 -4.82091 19
      vertex -4.73205 -4 19
      vertex -4.87938 -3.68404 19
    endloop
  endfacet
  facet normal 0 0 1
    outer loop
      vertex -6.49519 -3.75 19
      vertex -4.87938 -3.68404 19
      vertex -4.96961 -3.3473 19
    endloop
  endfacet
  facet normal 0 0 1
    outer loop
      vertex -6.49519 -3.75 19
      vertex -4.96961 -3.3473 19
      vertex -5 -3 19
    endloop
  endfacet
  facet normal 0 0 1
    outer loop
      vertex -7.04769 2.56515 19
      vertex -5 3 19
      vertex -6.49519 3.75 19
    endloop
  endfacet
  facet normal 0 0 1
    outer loop
      vertex -4.53209 -4.28557 19
      vertex -5.74533 -4.82091 19
      vertex -4.82091 -5.74533 19
    endloop
  endfacet
  facet normal 0 0 1
    outer loop
      vertex -7.38606 1.30236 19
      vertex -5 3 19
      vertex -7.04769 2.56515 19
    endloop
  endfacet
  facet normal 0 0 1
    outer loop
      vertex -4.87938 -3.68404 19
      vertex -6.49519 -3.75 19
      vertex -5.74533 -4.82091 19
    endloop
  endfacet
  facet normal 0 0 1
    outer loop
      vertex -7.5 0 19
      vertex -5 3 19
      vertex -7.38606 1.30236 19
    endloop
  endfacet
  facet normal 0 0 1
    outer loop
      vertex -5 -3 19
      vertex -7.04769 -2.56515 19
      vertex -6.49519 -3.75 19
    endloop
  endfacet
  facet normal 0 0 1
    outer loop
      vertex -5 3 19
      vertex -7.5 0 19
      vertex -5 -3 19
    endloop
  endfacet
  facet normal 0 0 1
    outer loop
      vertex -5 -3 19
      vertex -7.38606 -1.30236 19
      vertex -7.04769 -2.56515 19
    endloop
  endfacet
  facet normal 0 0 1
    outer loop
      vertex -5 -3 19
      vertex -7.5 0 19
      vertex -7.38606 -1.30236 19
    endloop
  endfacet
  facet normal 0.819152 0.573577 0
    outer loop
      vertex 6.49519 3.75 19
      vertex 5.74533 4.82091 14
      vertex 5.74533 4.82091 19
    endloop
  endfacet
  facet normal 0.819152 0.573577 0
    outer loop
      vertex 5.74533 4.82091 14
      vertex 6.49519 3.75 19
      vertex 6.49519 3.75 14
    endloop
  endfacet
  facet normal 0.906309 -0.422615 0
    outer loop
      vertex 6.49519 -3.75 19
      vertex 7.04769 -2.56515 14
      vertex 7.04769 -2.56515 19
    endloop
  endfacet
  facet normal 0.906309 -0.422615 0
    outer loop
      vertex 7.04769 -2.56515 14
      vertex 6.49519 -3.75 19
      vertex 6.49519 -3.75 14
    endloop
  endfacet
  facet normal 0.996195 -0.0871544 0
    outer loop
      vertex 7.38606 -1.30236 19
      vertex 7.5 0 14
      vertex 7.5 0 19
    endloop
  endfacet
  facet normal 0.996195 -0.0871544 0
    outer loop
      vertex 7.5 0 14
      vertex 7.38606 -1.30236 19
      vertex 7.38606 -1.30236 14
    endloop
  endfacet
  facet normal 0.965925 -0.258824 0
    outer loop
      vertex 7.04769 -2.56515 19
      vertex 7.38606 -1.30236 14
      vertex 7.38606 -1.30236 19
    endloop
  endfacet
  facet normal 0.965925 -0.258824 0
    outer loop
      vertex 7.38606 -1.30236 14
      vertex 7.04769 -2.56515 19
      vertex 7.04769 -2.56515 14
    endloop
  endfacet
  facet normal 0.422615 0.906309 -0
    outer loop
      vertex 3.75 6.49519 14
      vertex 2.56515 7.04769 19
      vertex 3.75 6.49519 19
    endloop
  endfacet
  facet normal 0.422615 0.906309 0
    outer loop
      vertex 2.56515 7.04769 19
      vertex 3.75 6.49519 14
      vertex 2.56515 7.04769 14
    endloop
  endfacet
  facet normal 0.707107 0.707107 0
    outer loop
      vertex 5.74533 4.82091 19
      vertex 4.82091 5.74533 14
      vertex 4.82091 5.74533 19
    endloop
  endfacet
  facet normal 0.707107 0.707107 0
    outer loop
      vertex 4.82091 5.74533 14
      vertex 5.74533 4.82091 19
      vertex 5.74533 4.82091 14
    endloop
  endfacet
  facet normal 0.258824 -0.965925 0
    outer loop
      vertex 1.30236 -7.38606 14
      vertex 2.56515 -7.04769 19
      vertex 1.30236 -7.38606 19
    endloop
  endfacet
  facet normal 0.258824 -0.965925 0
    outer loop
      vertex 2.56515 -7.04769 19
      vertex 1.30236 -7.38606 14
      vertex 2.56515 -7.04769 14
    endloop
  endfacet
  facet normal -0.996195 0.0871544 0
    outer loop
      vertex -7.5 0 14
      vertex -7.38606 1.30236 19
      vertex -7.38606 1.30236 14
    endloop
  endfacet
  facet normal -0.996195 0.0871544 0
    outer loop
      vertex -7.38606 1.30236 19
      vertex -7.5 0 14
      vertex -7.5 0 19
    endloop
  endfacet
  facet normal 0.573577 0.819152 -0
    outer loop
      vertex 4.82091 5.74533 14
      vertex 3.75 6.49519 19
      vertex 4.82091 5.74533 19
    endloop
  endfacet
  facet normal 0.573577 0.819152 0
    outer loop
      vertex 3.75 6.49519 19
      vertex 4.82091 5.74533 14
      vertex 3.75 6.49519 14
    endloop
  endfacet
  facet normal -0.422615 -0.906309 0
    outer loop
      vertex -3.75 -6.49519 14
      vertex -2.56515 -7.04769 19
      vertex -3.75 -6.49519 19
    endloop
  endfacet
  facet normal -0.422615 -0.906309 -0
    outer loop
      vertex -2.56515 -7.04769 19
      vertex -3.75 -6.49519 14
      vertex -2.56515 -7.04769 14
    endloop
  endfacet
  facet normal -0.258824 0.965925 0
    outer loop
      vertex -1.30236 7.38606 14
      vertex -2.56515 7.04769 19
      vertex -1.30236 7.38606 19
    endloop
  endfacet
  facet normal -0.258824 0.965925 0
    outer loop
      vertex -2.56515 7.04769 19
      vertex -1.30236 7.38606 14
      vertex -2.56515 7.04769 14
    endloop
  endfacet
  facet normal -0.0871544 0.996195 0
    outer loop
      vertex 0 7.5 14
      vertex -1.30236 7.38606 19
      vertex 0 7.5 19
    endloop
  endfacet
  facet normal -0.0871544 0.996195 0
    outer loop
      vertex -1.30236 7.38606 19
      vertex 0 7.5 14
      vertex -1.30236 7.38606 14
    endloop
  endfacet
  facet normal -0.906309 -0.422615 0
    outer loop
      vertex -6.49519 -3.75 14
      vertex -7.04769 -2.56515 19
      vertex -7.04769 -2.56515 14
    endloop
  endfacet
  facet normal -0.906309 -0.422615 0
    outer loop
      vertex -7.04769 -2.56515 19
      vertex -6.49519 -3.75 14
      vertex -6.49519 -3.75 19
    endloop
  endfacet
  facet normal 0.0871544 0.996195 -0
    outer loop
      vertex 1.30236 7.38606 14
      vertex 0 7.5 19
      vertex 1.30236 7.38606 19
    endloop
  endfacet
  facet normal 0.0871544 0.996195 0
    outer loop
      vertex 0 7.5 19
      vertex 1.30236 7.38606 14
      vertex 0 7.5 14
    endloop
  endfacet
  facet normal -0.819152 -0.573577 0
    outer loop
      vertex -5.74533 -4.82091 14
      vertex -6.49519 -3.75 19
      vertex -6.49519 -3.75 14
    endloop
  endfacet
  facet normal -0.819152 -0.573577 0
    outer loop
      vertex -6.49519 -3.75 19
      vertex -5.74533 -4.82091 14
      vertex -5.74533 -4.82091 19
    endloop
  endfacet
  facet normal -0.707107 -0.707107 0
    outer loop
      vertex -4.82091 -5.74533 14
      vertex -5.74533 -4.82091 19
      vertex -5.74533 -4.82091 14
    endloop
  endfacet
  facet normal -0.707107 -0.707107 0
    outer loop
      vertex -5.74533 -4.82091 19
      vertex -4.82091 -5.74533 14
      vertex -4.82091 -5.74533 19
    endloop
  endfacet
  facet normal 0.258824 0.965925 -0
    outer loop
      vertex 2.56515 7.04769 14
      vertex 1.30236 7.38606 19
      vertex 2.56515 7.04769 19
    endloop
  endfacet
  facet normal 0.258824 0.965925 0
    outer loop
      vertex 1.30236 7.38606 19
      vertex 2.56515 7.04769 14
      vertex 1.30236 7.38606 14
    endloop
  endfacet
  facet normal -0.965925 0.258824 0
    outer loop
      vertex -7.38606 1.30236 14
      vertex -7.04769 2.56515 19
      vertex -7.04769 2.56515 14
    endloop
  endfacet
  facet normal -0.965925 0.258824 0
    outer loop
      vertex -7.04769 2.56515 19
      vertex -7.38606 1.30236 14
      vertex -7.38606 1.30236 19
    endloop
  endfacet
  facet normal -0.707107 0.707107 0
    outer loop
      vertex -5.74533 4.82091 14
      vertex -4.82091 5.74533 19
      vertex -4.82091 5.74533 14
    endloop
  endfacet
  facet normal -0.707107 0.707107 0
    outer loop
      vertex -4.82091 5.74533 19
      vertex -5.74533 4.82091 14
      vertex -5.74533 4.82091 19
    endloop
  endfacet
  facet normal 0.087153 -0.996195 0
    outer loop
      vertex 0 -8.5 0
      vertex 1.47601 -8.37087 14
      vertex 0 -8.5 14
    endloop
  endfacet
  facet normal 0.087153 -0.996195 0
    outer loop
      vertex 1.47601 -8.37087 14
      vertex 0 -8.5 0
      vertex 1.47601 -8.37087 0
    endloop
  endfacet
  facet normal 0.965926 0.25882 0
    outer loop
      vertex 8.37087 1.47601 14
      vertex 7.98739 2.90717 0
      vertex 7.98739 2.90717 14
    endloop
  endfacet
  facet normal 0.965926 0.25882 0
    outer loop
      vertex 7.98739 2.90717 0
      vertex 8.37087 1.47601 14
      vertex 8.37087 1.47601 0
    endloop
  endfacet
  facet normal 0.996195 0.087153 0
    outer loop
      vertex 8.5 0 14
      vertex 8.37087 1.47601 0
      vertex 8.37087 1.47601 14
    endloop
  endfacet
  facet normal 0.996195 0.087153 0
    outer loop
      vertex 8.37087 1.47601 0
      vertex 8.5 0 14
      vertex 8.5 0 0
    endloop
  endfacet
  facet normal 0.906308 0.422617 0
    outer loop
      vertex 7.98739 2.90717 14
      vertex 7.36122 4.25 0
      vertex 7.36122 4.25 14
    endloop
  endfacet
  facet normal 0.906308 0.422617 0
    outer loop
      vertex 7.36122 4.25 0
      vertex 7.98739 2.90717 14
      vertex 7.98739 2.90717 0
    endloop
  endfacet
  facet normal -0.965926 -0.25882 0
    outer loop
      vertex -7.98739 -2.90717 0
      vertex -8.37087 -1.47601 14
      vertex -8.37087 -1.47601 0
    endloop
  endfacet
  facet normal -0.965926 -0.25882 0
    outer loop
      vertex -8.37087 -1.47601 14
      vertex -7.98739 -2.90717 0
      vertex -7.98739 -2.90717 14
    endloop
  endfacet
  facet normal 0.422617 0.906308 -0
    outer loop
      vertex 4.25 7.36122 0
      vertex 2.90717 7.98739 14
      vertex 4.25 7.36122 14
    endloop
  endfacet
  facet normal 0.422617 0.906308 0
    outer loop
      vertex 2.90717 7.98739 14
      vertex 4.25 7.36122 0
      vertex 2.90717 7.98739 0
    endloop
  endfacet
  facet normal 0 0 1
    outer loop
      vertex 7.5 0 14
      vertex 8.5 0 14
      vertex 8.37087 1.47601 14
    endloop
  endfacet
  facet normal 0 0 1
    outer loop
      vertex 7.38606 1.30236 14
      vertex 8.37087 1.47601 14
      vertex 7.98739 2.90717 14
    endloop
  endfacet
  facet normal 0 0 1
    outer loop
      vertex 8.5 0 14
      vertex 7.5 0 14
      vertex 8.37087 -1.47601 14
    endloop
  endfacet
  facet normal -0 0 1
    outer loop
      vertex 7.38606 -1.30236 14
      vertex 8.37087 -1.47601 14
      vertex 7.5 0 14
    endloop
  endfacet
  facet normal 0 0 1
    outer loop
      vertex 8.37087 1.47601 14
      vertex 7.38606 1.30236 14
      vertex 7.5 0 14
    endloop
  endfacet
  facet normal 0 0 1
    outer loop
      vertex 7.04769 2.56515 14
      vertex 7.98739 2.90717 14
      vertex 7.36122 4.25 14
    endloop
  endfacet
  facet normal 0 0 1
    outer loop
      vertex 7.98739 2.90717 14
      vertex 7.04769 2.56515 14
      vertex 7.38606 1.30236 14
    endloop
  endfacet
  facet normal 0 0 1
    outer loop
      vertex 6.49519 3.75 14
      vertex 7.36122 4.25 14
      vertex 6.51138 5.46369 14
    endloop
  endfacet
  facet normal 0 0 1
    outer loop
      vertex 7.36122 4.25 14
      vertex 6.49519 3.75 14
      vertex 7.04769 2.56515 14
    endloop
  endfacet
  facet normal 0 0 1
    outer loop
      vertex 6.51138 5.46369 14
      vertex 5.74533 4.82091 14
      vertex 6.49519 3.75 14
    endloop
  endfacet
  facet normal 0 0 1
    outer loop
      vertex 5.46369 6.51138 14
      vertex 5.74533 4.82091 14
      vertex 6.51138 5.46369 14
    endloop
  endfacet
  facet normal 0 0 1
    outer loop
      vertex 5.46369 6.51138 14
      vertex 4.82091 5.74533 14
      vertex 5.74533 4.82091 14
    endloop
  endfacet
  facet normal 0 0 1
    outer loop
      vertex 4.25 7.36122 14
      vertex 4.82091 5.74533 14
      vertex 5.46369 6.51138 14
    endloop
  endfacet
  facet normal 0 0 1
    outer loop
      vertex 4.25 7.36122 14
      vertex 3.75 6.49519 14
      vertex 4.82091 5.74533 14
    endloop
  endfacet
  facet normal 0 0 1
    outer loop
      vertex 2.90717 7.98739 14
      vertex 3.75 6.49519 14
      vertex 4.25 7.36122 14
    endloop
  endfacet
  facet normal 0 0 1
    outer loop
      vertex 2.90717 7.98739 14
      vertex 2.56515 7.04769 14
      vertex 3.75 6.49519 14
    endloop
  endfacet
  facet normal 0 0 1
    outer loop
      vertex 1.47601 8.37087 14
      vertex 2.56515 7.04769 14
      vertex 2.90717 7.98739 14
    endloop
  endfacet
  facet normal 0 0 1
    outer loop
      vertex 1.47601 8.37087 14
      vertex 1.30236 7.38606 14
      vertex 2.56515 7.04769 14
    endloop
  endfacet
  facet normal 0 0 1
    outer loop
      vertex 0 8.5 14
      vertex 1.30236 7.38606 14
      vertex 1.47601 8.37087 14
    endloop
  endfacet
  facet normal 0 0 1
    outer loop
      vertex 0 8.5 14
      vertex 0 7.5 14
      vertex 1.30236 7.38606 14
    endloop
  endfacet
  facet normal 0 0 1
    outer loop
      vertex 0 8.5 14
      vertex -1.30236 7.38606 14
      vertex 0 7.5 14
    endloop
  endfacet
  facet normal -0 0 1
    outer loop
      vertex -1.47601 8.37087 14
      vertex -1.30236 7.38606 14
      vertex 0 8.5 14
    endloop
  endfacet
  facet normal 0 0 1
    outer loop
      vertex -1.47601 8.37087 14
      vertex -2.56515 7.04769 14
      vertex -1.30236 7.38606 14
    endloop
  endfacet
  facet normal -0 0 1
    outer loop
      vertex -2.90717 7.98739 14
      vertex -2.56515 7.04769 14
      vertex -1.47601 8.37087 14
    endloop
  endfacet
  facet normal 0 0 1
    outer loop
      vertex -2.90717 7.98739 14
      vertex -3.75 6.49519 14
      vertex -2.56515 7.04769 14
    endloop
  endfacet
  facet normal -0 0 1
    outer loop
      vertex -4.25 7.36122 14
      vertex -3.75 6.49519 14
      vertex -2.90717 7.98739 14
    endloop
  endfacet
  facet normal 0 0 1
    outer loop
      vertex -4.25 7.36122 14
      vertex -4.82091 5.74533 14
      vertex -3.75 6.49519 14
    endloop
  endfacet
  facet normal -0 0 1
    outer loop
      vertex -5.46369 6.51138 14
      vertex -4.82091 5.74533 14
      vertex -4.25 7.36122 14
    endloop
  endfacet
  facet normal 0 0 1
    outer loop
      vertex -5.46369 6.51138 14
      vertex -5.74533 4.82091 14
      vertex -4.82091 5.74533 14
    endloop
  endfacet
  facet normal -0 0 1
    outer loop
      vertex -6.51138 5.46369 14
      vertex -5.74533 4.82091 14
      vertex -5.46369 6.51138 14
    endloop
  endfacet
  facet normal 0 0 1
    outer loop
      vertex -5.74533 4.82091 14
      vertex -6.51138 5.46369 14
      vertex -6.49519 3.75 14
    endloop
  endfacet
  facet normal -0 0 1
    outer loop
      vertex -7.36122 4.25 14
      vertex -6.49519 3.75 14
      vertex -6.51138 5.46369 14
    endloop
  endfacet
  facet normal 0 0 1
    outer loop
      vertex -6.49519 3.75 14
      vertex -7.36122 4.25 14
      vertex -7.04769 2.56515 14
    endloop
  endfacet
  facet normal -0 0 1
    outer loop
      vertex -7.98739 2.90717 14
      vertex -7.04769 2.56515 14
      vertex -7.36122 4.25 14
    endloop
  endfacet
  facet normal 0 0 1
    outer loop
      vertex -7.04769 2.56515 14
      vertex -7.98739 2.90717 14
      vertex -7.38606 1.30236 14
    endloop
  endfacet
  facet normal -0 0 1
    outer loop
      vertex -8.37087 1.47601 14
      vertex -7.38606 1.30236 14
      vertex -7.98739 2.90717 14
    endloop
  endfacet
  facet normal 0 0 1
    outer loop
      vertex 8.37087 -1.47601 14
      vertex 7.38606 -1.30236 14
      vertex 7.98739 -2.90717 14
    endloop
  endfacet
  facet normal -0 0 1
    outer loop
      vertex 7.04769 -2.56515 14
      vertex 7.98739 -2.90717 14
      vertex 7.38606 -1.30236 14
    endloop
  endfacet
  facet normal 0 0 1
    outer loop
      vertex 7.98739 -2.90717 14
      vertex 7.04769 -2.56515 14
      vertex 7.36122 -4.25 14
    endloop
  endfacet
  facet normal -0 0 1
    outer loop
      vertex 6.49519 -3.75 14
      vertex 7.36122 -4.25 14
      vertex 7.04769 -2.56515 14
    endloop
  endfacet
  facet normal 0 0 1
    outer loop
      vertex 7.36122 -4.25 14
      vertex 6.49519 -3.75 14
      vertex 6.51138 -5.46369 14
    endloop
  endfacet
  facet normal -0 0 1
    outer loop
      vertex 5.74533 -4.82091 14
      vertex 6.51138 -5.46369 14
      vertex 6.49519 -3.75 14
    endloop
  endfacet
  facet normal 0 0 1
    outer loop
      vertex 5.74533 -4.82091 14
      vertex 5.46369 -6.51138 14
      vertex 6.51138 -5.46369 14
    endloop
  endfacet
  facet normal -0 0 1
    outer loop
      vertex 4.82091 -5.74533 14
      vertex 5.46369 -6.51138 14
      vertex 5.74533 -4.82091 14
    endloop
  endfacet
  facet normal 0 0 1
    outer loop
      vertex 4.82091 -5.74533 14
      vertex 4.25 -7.36122 14
      vertex 5.46369 -6.51138 14
    endloop
  endfacet
  facet normal -0 0 1
    outer loop
      vertex 3.75 -6.49519 14
      vertex 4.25 -7.36122 14
      vertex 4.82091 -5.74533 14
    endloop
  endfacet
  facet normal 0 0 1
    outer loop
      vertex 3.75 -6.49519 14
      vertex 2.90717 -7.98739 14
      vertex 4.25 -7.36122 14
    endloop
  endfacet
  facet normal -0 0 1
    outer loop
      vertex 2.56515 -7.04769 14
      vertex 2.90717 -7.98739 14
      vertex 3.75 -6.49519 14
    endloop
  endfacet
  facet normal 0 0 1
    outer loop
      vertex 2.56515 -7.04769 14
      vertex 1.47601 -8.37087 14
      vertex 2.90717 -7.98739 14
    endloop
  endfacet
  facet normal -0 0 1
    outer loop
      vertex 1.30236 -7.38606 14
      vertex 1.47601 -8.37087 14
      vertex 2.56515 -7.04769 14
    endloop
  endfacet
  facet normal -0 0 1
    outer loop
      vertex 0 -7.5 14
      vertex 1.47601 -8.37087 14
      vertex 1.30236 -7.38606 14
    endloop
  endfacet
  facet normal 0 0 1
    outer loop
      vertex 0 -7.5 14
      vertex 0 -8.5 14
      vertex 1.47601 -8.37087 14
    endloop
  endfacet
  facet normal 0 0 1
    outer loop
      vertex -1.30236 -7.38606 14
      vertex 0 -8.5 14
      vertex 0 -7.5 14
    endloop
  endfacet
  facet normal 0 0 1
    outer loop
      vertex -1.30236 -7.38606 14
      vertex -1.47601 -8.37087 14
      vertex 0 -8.5 14
    endloop
  endfacet
  facet normal 0 0 1
    outer loop
      vertex -2.56515 -7.04769 14
      vertex -1.47601 -8.37087 14
      vertex -1.30236 -7.38606 14
    endloop
  endfacet
  facet normal 0 0 1
    outer loop
      vertex -2.56515 -7.04769 14
      vertex -2.90717 -7.98739 14
      vertex -1.47601 -8.37087 14
    endloop
  endfacet
  facet normal 0 0 1
    outer loop
      vertex -3.75 -6.49519 14
      vertex -2.90717 -7.98739 14
      vertex -2.56515 -7.04769 14
    endloop
  endfacet
  facet normal 0 0 1
    outer loop
      vertex -3.75 -6.49519 14
      vertex -4.25 -7.36122 14
      vertex -2.90717 -7.98739 14
    endloop
  endfacet
  facet normal 0 0 1
    outer loop
      vertex -4.82091 -5.74533 14
      vertex -4.25 -7.36122 14
      vertex -3.75 -6.49519 14
    endloop
  endfacet
  facet normal 0 0 1
    outer loop
      vertex -4.82091 -5.74533 14
      vertex -5.46369 -6.51138 14
      vertex -4.25 -7.36122 14
    endloop
  endfacet
  facet normal 0 0 1
    outer loop
      vertex -5.74533 -4.82091 14
      vertex -5.46369 -6.51138 14
      vertex -4.82091 -5.74533 14
    endloop
  endfacet
  facet normal 0 0 1
    outer loop
      vertex -6.51138 -5.46369 14
      vertex -5.74533 -4.82091 14
      vertex -6.49519 -3.75 14
    endloop
  endfacet
  facet normal 0 0 1
    outer loop
      vertex -5.74533 -4.82091 14
      vertex -6.51138 -5.46369 14
      vertex -5.46369 -6.51138 14
    endloop
  endfacet
  facet normal 0 0 1
    outer loop
      vertex -7.36122 -4.25 14
      vertex -6.49519 -3.75 14
      vertex -7.04769 -2.56515 14
    endloop
  endfacet
  facet normal 0 0 1
    outer loop
      vertex -6.49519 -3.75 14
      vertex -7.36122 -4.25 14
      vertex -6.51138 -5.46369 14
    endloop
  endfacet
  facet normal 0 0 1
    outer loop
      vertex -7.98739 -2.90717 14
      vertex -7.04769 -2.56515 14
      vertex -7.38606 -1.30236 14
    endloop
  endfacet
  facet normal 0 0 1
    outer loop
      vertex -8.37087 -1.47601 14
      vertex -7.38606 -1.30236 14
      vertex -7.5 0 14
    endloop
  endfacet
  facet normal 0 0 1
    outer loop
      vertex -7.38606 1.30236 14
      vertex -8.37087 1.47601 14
      vertex -7.5 0 14
    endloop
  endfacet
  facet normal 0 0 1
    outer loop
      vertex -7.04769 -2.56515 14
      vertex -7.98739 -2.90717 14
      vertex -7.36122 -4.25 14
    endloop
  endfacet
  facet normal 0 0 1
    outer loop
      vertex -8.5 0 14
      vertex -7.5 0 14
      vertex -8.37087 1.47601 14
    endloop
  endfacet
  facet normal 0 0 1
    outer loop
      vertex -7.38606 -1.30236 14
      vertex -8.37087 -1.47601 14
      vertex -7.98739 -2.90717 14
    endloop
  endfacet
  facet normal 0 0 1
    outer loop
      vertex -7.5 0 14
      vertex -8.5 0 14
      vertex -8.37087 -1.47601 14
    endloop
  endfacet
  facet normal -0.573579 -0.81915 0
    outer loop
      vertex -5.46369 -6.51138 0
      vertex -4.25 -7.36122 14
      vertex -5.46369 -6.51138 14
    endloop
  endfacet
  facet normal -0.573579 -0.81915 -0
    outer loop
      vertex -4.25 -7.36122 14
      vertex -5.46369 -6.51138 0
      vertex -4.25 -7.36122 0
    endloop
  endfacet
  facet normal -0.25882 0.965926 0
    outer loop
      vertex -1.47601 8.37087 0
      vertex -2.90717 7.98739 14
      vertex -1.47601 8.37087 14
    endloop
  endfacet
  facet normal -0.25882 0.965926 0
    outer loop
      vertex -2.90717 7.98739 14
      vertex -1.47601 8.37087 0
      vertex -2.90717 7.98739 0
    endloop
  endfacet
  facet normal -0.996195 0.087153 0
    outer loop
      vertex -8.5 0 0
      vertex -8.37087 1.47601 14
      vertex -8.37087 1.47601 0
    endloop
  endfacet
  facet normal -0.996195 0.087153 0
    outer loop
      vertex -8.37087 1.47601 14
      vertex -8.5 0 0
      vertex -8.5 0 14
    endloop
  endfacet
  facet normal -0.573579 0.81915 0
    outer loop
      vertex -4.25 7.36122 0
      vertex -5.46369 6.51138 14
      vertex -4.25 7.36122 14
    endloop
  endfacet
  facet normal -0.573579 0.81915 0
    outer loop
      vertex -5.46369 6.51138 14
      vertex -4.25 7.36122 0
      vertex -5.46369 6.51138 0
    endloop
  endfacet
  facet normal 0.81915 0.573579 0
    outer loop
      vertex 7.36122 4.25 14
      vertex 6.51138 5.46369 0
      vertex 6.51138 5.46369 14
    endloop
  endfacet
  facet normal 0.81915 0.573579 0
    outer loop
      vertex 6.51138 5.46369 0
      vertex 7.36122 4.25 14
      vertex 7.36122 4.25 0
    endloop
  endfacet
  facet normal 0.707107 -0.707107 0
    outer loop
      vertex 5.46369 -6.51138 14
      vertex 6.51138 -5.46369 0
      vertex 6.51138 -5.46369 14
    endloop
  endfacet
  facet normal 0.707107 -0.707107 0
    outer loop
      vertex 6.51138 -5.46369 0
      vertex 5.46369 -6.51138 14
      vertex 5.46369 -6.51138 0
    endloop
  endfacet
  facet normal 0.087153 0.996195 -0
    outer loop
      vertex 1.47601 8.37087 0
      vertex 0 8.5 14
      vertex 1.47601 8.37087 14
    endloop
  endfacet
  facet normal 0.087153 0.996195 0
    outer loop
      vertex 0 8.5 14
      vertex 1.47601 8.37087 0
      vertex 0 8.5 0
    endloop
  endfacet
  facet normal -0.087153 0.996195 0
    outer loop
      vertex 0 8.5 0
      vertex -1.47601 8.37087 14
      vertex 0 8.5 14
    endloop
  endfacet
  facet normal -0.087153 0.996195 0
    outer loop
      vertex -1.47601 8.37087 14
      vertex 0 8.5 0
      vertex -1.47601 8.37087 0
    endloop
  endfacet
  facet normal 0.573579 -0.81915 0
    outer loop
      vertex 4.25 -7.36122 0
      vertex 5.46369 -6.51138 14
      vertex 4.25 -7.36122 14
    endloop
  endfacet
  facet normal 0.573579 -0.81915 0
    outer loop
      vertex 5.46369 -6.51138 14
      vertex 4.25 -7.36122 0
      vertex 5.46369 -6.51138 0
    endloop
  endfacet
  facet normal 0.996195 -0.087153 0
    outer loop
      vertex 8.37087 -1.47601 14
      vertex 8.5 0 0
      vertex 8.5 0 14
    endloop
  endfacet
  facet normal 0.996195 -0.087153 0
    outer loop
      vertex 8.5 0 0
      vertex 8.37087 -1.47601 14
      vertex 8.37087 -1.47601 0
    endloop
  endfacet
  facet normal 0.906308 -0.422617 0
    outer loop
      vertex 7.36122 -4.25 14
      vertex 7.98739 -2.90717 0
      vertex 7.98739 -2.90717 14
    endloop
  endfacet
  facet normal 0.906308 -0.422617 0
    outer loop
      vertex 7.98739 -2.90717 0
      vertex 7.36122 -4.25 14
      vertex 7.36122 -4.25 0
    endloop
  endfacet
  facet normal 0.25882 -0.965926 0
    outer loop
      vertex 1.47601 -8.37087 0
      vertex 2.90717 -7.98739 14
      vertex 1.47601 -8.37087 14
    endloop
  endfacet
  facet normal 0.25882 -0.965926 0
    outer loop
      vertex 2.90717 -7.98739 14
      vertex 1.47601 -8.37087 0
      vertex 2.90717 -7.98739 0
    endloop
  endfacet
  facet normal -0.996195 -0.087153 0
    outer loop
      vertex -8.37087 -1.47601 0
      vertex -8.5 0 14
      vertex -8.5 0 0
    endloop
  endfacet
  facet normal -0.996195 -0.087153 0
    outer loop
      vertex -8.5 0 14
      vertex -8.37087 -1.47601 0
      vertex -8.37087 -1.47601 14
    endloop
  endfacet
  facet normal 0.81915 -0.573579 0
    outer loop
      vertex 6.51138 -5.46369 14
      vertex 7.36122 -4.25 0
      vertex 7.36122 -4.25 14
    endloop
  endfacet
  facet normal 0.81915 -0.573579 0
    outer loop
      vertex 7.36122 -4.25 0
      vertex 6.51138 -5.46369 14
      vertex 6.51138 -5.46369 0
    endloop
  endfacet
  facet normal -0.81915 0.573579 0
    outer loop
      vertex -7.36122 4.25 0
      vertex -6.51138 5.46369 14
      vertex -6.51138 5.46369 0
    endloop
  endfacet
  facet normal -0.81915 0.573579 0
    outer loop
      vertex -6.51138 5.46369 14
      vertex -7.36122 4.25 0
      vertex -7.36122 4.25 14
    endloop
  endfacet
  facet normal -0.965926 0.25882 0
    outer loop
      vertex -8.37087 1.47601 0
      vertex -7.98739 2.90717 14
      vertex -7.98739 2.90717 0
    endloop
  endfacet
  facet normal -0.965926 0.25882 0
    outer loop
      vertex -7.98739 2.90717 14
      vertex -8.37087 1.47601 0
      vertex -8.37087 1.47601 14
    endloop
  endfacet
  facet normal -0.422617 0.906308 0
    outer loop
      vertex -2.90717 7.98739 0
      vertex -4.25 7.36122 14
      vertex -2.90717 7.98739 14
    endloop
  endfacet
  facet normal -0.422617 0.906308 0
    outer loop
      vertex -4.25 7.36122 14
      vertex -2.90717 7.98739 0
      vertex -4.25 7.36122 0
    endloop
  endfacet
  facet normal 0.707107 0.707107 0
    outer loop
      vertex 6.51138 5.46369 14
      vertex 5.46369 6.51138 0
      vertex 5.46369 6.51138 14
    endloop
  endfacet
  facet normal 0.707107 0.707107 0
    outer loop
      vertex 5.46369 6.51138 0
      vertex 6.51138 5.46369 14
      vertex 6.51138 5.46369 0
    endloop
  endfacet
  facet normal -0.707107 -0.707107 0
    outer loop
      vertex -5.46369 -6.51138 0
      vertex -6.51138 -5.46369 14
      vertex -6.51138 -5.46369 0
    endloop
  endfacet
  facet normal -0.707107 -0.707107 0
    outer loop
      vertex -6.51138 -5.46369 14
      vertex -5.46369 -6.51138 0
      vertex -5.46369 -6.51138 14
    endloop
  endfacet
  facet normal 0.965926 -0.25882 0
    outer loop
      vertex 7.98739 -2.90717 14
      vertex 8.37087 -1.47601 0
      vertex 8.37087 -1.47601 14
    endloop
  endfacet
  facet normal 0.965926 -0.25882 0
    outer loop
      vertex 8.37087 -1.47601 0
      vertex 7.98739 -2.90717 14
      vertex 7.98739 -2.90717 0
    endloop
  endfacet
  facet normal 0.573579 0.81915 -0
    outer loop
      vertex 5.46369 6.51138 0
      vertex 4.25 7.36122 14
      vertex 5.46369 6.51138 14
    endloop
  endfacet
  facet normal 0.573579 0.81915 0
    outer loop
      vertex 4.25 7.36122 14
      vertex 5.46369 6.51138 0
      vertex 4.25 7.36122 0
    endloop
  endfacet
  facet normal -0.906308 -0.422617 0
    outer loop
      vertex -7.36122 -4.25 0
      vertex -7.98739 -2.90717 14
      vertex -7.98739 -2.90717 0
    endloop
  endfacet
  facet normal -0.906308 -0.422617 0
    outer loop
      vertex -7.98739 -2.90717 14
      vertex -7.36122 -4.25 0
      vertex -7.36122 -4.25 14
    endloop
  endfacet
  facet normal -0.422617 -0.906308 0
    outer loop
      vertex -4.25 -7.36122 0
      vertex -2.90717 -7.98739 14
      vertex -4.25 -7.36122 14
    endloop
  endfacet
  facet normal -0.422617 -0.906308 -0
    outer loop
      vertex -2.90717 -7.98739 14
      vertex -4.25 -7.36122 0
      vertex -2.90717 -7.98739 0
    endloop
  endfacet
  facet normal 0.25882 0.965926 -0
    outer loop
      vertex 2.90717 7.98739 0
      vertex 1.47601 8.37087 14
      vertex 2.90717 7.98739 14
    endloop
  endfacet
  facet normal 0.25882 0.965926 0
    outer loop
      vertex 1.47601 8.37087 14
      vertex 2.90717 7.98739 0
      vertex 1.47601 8.37087 0
    endloop
  endfacet
  facet normal -0.81915 -0.573579 0
    outer loop
      vertex -6.51138 -5.46369 0
      vertex -7.36122 -4.25 14
      vertex -7.36122 -4.25 0
    endloop
  endfacet
  facet normal -0.81915 -0.573579 0
    outer loop
      vertex -7.36122 -4.25 14
      vertex -6.51138 -5.46369 0
      vertex -6.51138 -5.46369 14
    endloop
  endfacet
  facet normal -0.25882 -0.965926 0
    outer loop
      vertex -2.90717 -7.98739 0
      vertex -1.47601 -8.37087 14
      vertex -2.90717 -7.98739 14
    endloop
  endfacet
  facet normal -0.25882 -0.965926 -0
    outer loop
      vertex -1.47601 -8.37087 14
      vertex -2.90717 -7.98739 0
      vertex -1.47601 -8.37087 0
    endloop
  endfacet
  facet normal 0.422617 -0.906308 0
    outer loop
      vertex 2.90717 -7.98739 0
      vertex 4.25 -7.36122 14
      vertex 2.90717 -7.98739 14
    endloop
  endfacet
  facet normal 0.422617 -0.906308 0
    outer loop
      vertex 4.25 -7.36122 14
      vertex 2.90717 -7.98739 0
      vertex 4.25 -7.36122 0
    endloop
  endfacet
  facet normal -0.906308 0.422617 0
    outer loop
      vertex -7.98739 2.90717 0
      vertex -7.36122 4.25 14
      vertex -7.36122 4.25 0
    endloop
  endfacet
  facet normal -0.906308 0.422617 0
    outer loop
      vertex -7.36122 4.25 14
      vertex -7.98739 2.90717 0
      vertex -7.98739 2.90717 14
    endloop
  endfacet
  facet normal -0.087153 -0.996195 0
    outer loop
      vertex -1.47601 -8.37087 0
      vertex 0 -8.5 14
      vertex -1.47601 -8.37087 14
    endloop
  endfacet
  facet normal -0.087153 -0.996195 -0
    outer loop
      vertex 0 -8.5 14
      vertex -1.47601 -8.37087 0
      vertex 0 -8.5 0
    endloop
  endfacet
  facet normal -0.707107 0.707107 0
    outer loop
      vertex -6.51138 5.46369 0
      vertex -5.46369 6.51138 14
      vertex -5.46369 6.51138 0
    endloop
  endfacet
  facet normal -0.707107 0.707107 0
    outer loop
      vertex -5.46369 6.51138 14
      vertex -6.51138 5.46369 0
      vertex -6.51138 5.46369 14
    endloop
  endfacet
  facet normal 0.996193 0.0871705 0
    outer loop
      vertex -4.96961 -3.3473 19
      vertex -5 -3 10
      vertex -5 -3 19
    endloop
  endfacet
  facet normal 0.996193 0.0871705 0
    outer loop
      vertex -5 -3 10
      vertex -4.96961 -3.3473 19
      vertex -4.96961 -3.3473 10
    endloop
  endfacet
  facet normal 0.965925 0.258821 0
    outer loop
      vertex -4.87938 -3.68404 19
      vertex -4.96961 -3.3473 10
      vertex -4.96961 -3.3473 19
    endloop
  endfacet
  facet normal 0.965925 0.258821 0
    outer loop
      vertex -4.96961 -3.3473 10
      vertex -4.87938 -3.68404 19
      vertex -4.87938 -3.68404 10
    endloop
  endfacet
  facet normal 0.707107 0.707107 0
    outer loop
      vertex -4.28557 -4.53209 19
      vertex -4.53209 -4.28557 10
      vertex -4.53209 -4.28557 19
    endloop
  endfacet
  facet normal 0.707107 0.707107 0
    outer loop
      vertex -4.53209 -4.28557 10
      vertex -4.28557 -4.53209 19
      vertex -4.28557 -4.53209 10
    endloop
  endfacet
  facet normal 0.57358 0.81915 -0
    outer loop
      vertex -4 -4.73205 10
      vertex -4.28557 -4.53209 19
      vertex -4 -4.73205 19
    endloop
  endfacet
  facet normal 0.57358 0.81915 0
    outer loop
      vertex -4.28557 -4.53209 19
      vertex -4 -4.73205 10
      vertex -4.28557 -4.53209 10
    endloop
  endfacet
  facet normal 0.906313 0.422607 0
    outer loop
      vertex -4.73205 -4 19
      vertex -4.87938 -3.68404 10
      vertex -4.87938 -3.68404 19
    endloop
  endfacet
  facet normal 0.906313 0.422607 0
    outer loop
      vertex -4.87938 -3.68404 10
      vertex -4.73205 -4 19
      vertex -4.73205 -4 10
    endloop
  endfacet
  facet normal 0.81915 0.57358 0
    outer loop
      vertex -4.53209 -4.28557 19
      vertex -4.73205 -4 10
      vertex -4.73205 -4 19
    endloop
  endfacet
  facet normal 0.81915 0.57358 0
    outer loop
      vertex -4.73205 -4 10
      vertex -4.53209 -4.28557 19
      vertex -4.53209 -4.28557 10
    endloop
  endfacet
  facet normal 0.0871705 0.996193 -0
    outer loop
      vertex -3 -5 10
      vertex -3.3473 -4.96961 19
      vertex -3 -5 19
    endloop
  endfacet
  facet normal 0.0871705 0.996193 0
    outer loop
      vertex -3.3473 -4.96961 19
      vertex -3 -5 10
      vertex -3.3473 -4.96961 10
    endloop
  endfacet
  facet normal 0.258821 0.965925 -0
    outer loop
      vertex -3.3473 -4.96961 10
      vertex -3.68404 -4.87938 19
      vertex -3.3473 -4.96961 19
    endloop
  endfacet
  facet normal 0.258821 0.965925 0
    outer loop
      vertex -3.68404 -4.87938 19
      vertex -3.3473 -4.96961 10
      vertex -3.68404 -4.87938 10
    endloop
  endfacet
  facet normal 0 0 1
    outer loop
      vertex 3 5 10
      vertex 5 3 10
      vertex 4.96961 3.3473 10
    endloop
  endfacet
  facet normal 0 0 1
    outer loop
      vertex 5 3 10
      vertex 1 0 10
      vertex 5 -3 10
    endloop
  endfacet
  facet normal 0 0 1
    outer loop
      vertex 3 5 10
      vertex 4.96961 3.3473 10
      vertex 4.87938 3.68404 10
    endloop
  endfacet
  facet normal -0 0 1
    outer loop
      vertex 0.984807 -0.173648 10
      vertex 5 -3 10
      vertex 1 0 10
    endloop
  endfacet
  facet normal 0 0 1
    outer loop
      vertex 3 5 10
      vertex 4.87938 3.68404 10
      vertex 4.73205 4 10
    endloop
  endfacet
  facet normal -0 0 1
    outer loop
      vertex 0.939692 -0.34202 10
      vertex 5 -3 10
      vertex 0.984807 -0.173648 10
    endloop
  endfacet
  facet normal 0 0 1
    outer loop
      vertex 3 5 10
      vertex 4.73205 4 10
      vertex 4.53209 4.28557 10
    endloop
  endfacet
  facet normal -0 0 1
    outer loop
      vertex 0.866025 -0.5 10
      vertex 5 -3 10
      vertex 0.939692 -0.34202 10
    endloop
  endfacet
  facet normal 0 0 1
    outer loop
      vertex 3 5 10
      vertex 4.53209 4.28557 10
      vertex 4.28557 4.53209 10
    endloop
  endfacet
  facet normal -0 0 1
    outer loop
      vertex 0.766044 -0.642787 10
      vertex 5 -3 10
      vertex 0.866025 -0.5 10
    endloop
  endfacet
  facet normal 0 0 1
    outer loop
      vertex 3 5 10
      vertex 4.28557 4.53209 10
      vertex 4 4.73205 10
    endloop
  endfacet
  facet normal 0 -0 1
    outer loop
      vertex 3 -5 10
      vertex 5 -3 10
      vertex 0.766044 -0.642787 10
    endloop
  endfacet
  facet normal 0 0 1
    outer loop
      vertex 3 5 10
      vertex 4 4.73205 10
      vertex 3.68404 4.87938 10
    endloop
  endfacet
  facet normal 0 0 1
    outer loop
      vertex 5 -3 10
      vertex 3 -5 10
      vertex 4.96961 -3.3473 10
    endloop
  endfacet
  facet normal 0 0 1
    outer loop
      vertex 3 5 10
      vertex 3.68404 4.87938 10
      vertex 3.3473 4.96961 10
    endloop
  endfacet
  facet normal 0 0 1
    outer loop
      vertex 4.96961 -3.3473 10
      vertex 3 -5 10
      vertex 4.87938 -3.68404 10
    endloop
  endfacet
  facet normal 0 0 1
    outer loop
      vertex 5 3 10
      vertex 3 5 10
      vertex 0.766044 0.642787 10
    endloop
  endfacet
  facet normal 0 0 1
    outer loop
      vertex 4.87938 -3.68404 10
      vertex 3 -5 10
      vertex 4.73205 -4 10
    endloop
  endfacet
  facet normal 0 0 1
    outer loop
      vertex 4.73205 -4 10
      vertex 3 -5 10
      vertex 4.53209 -4.28557 10
    endloop
  endfacet
  facet normal 0 0 1
    outer loop
      vertex 5 3 10
      vertex 0.984807 0.173648 10
      vertex 1 0 10
    endloop
  endfacet
  facet normal 0 0 1
    outer loop
      vertex 5 3 10
      vertex 0.939692 0.34202 10
      vertex 0.984807 0.173648 10
    endloop
  endfacet
  facet normal 0 0 1
    outer loop
      vertex 5 3 10
      vertex 0.866025 0.5 10
      vertex 0.939692 0.34202 10
    endloop
  endfacet
  facet normal 0 0 1
    outer loop
      vertex 5 3 10
      vertex 0.766044 0.642787 10
      vertex 0.866025 0.5 10
    endloop
  endfacet
  facet normal 0 0 1
    outer loop
      vertex 3 5 10
      vertex 0.642787 0.766044 10
      vertex 0.766044 0.642787 10
    endloop
  endfacet
  facet normal 0 0 1
    outer loop
      vertex 3 5 10
      vertex 0.5 0.866025 10
      vertex 0.642787 0.766044 10
    endloop
  endfacet
  facet normal 0 0 1
    outer loop
      vertex 3 5 10
      vertex 0.34202 0.939692 10
      vertex 0.5 0.866025 10
    endloop
  endfacet
  facet normal 0 0 1
    outer loop
      vertex 3 5 10
      vertex 0.173648 0.984807 10
      vertex 0.34202 0.939692 10
    endloop
  endfacet
  facet normal 0 0 1
    outer loop
      vertex 3 5 10
      vertex 0 1 10
      vertex 0.173648 0.984807 10
    endloop
  endfacet
  facet normal -0 0 1
    outer loop
      vertex -3 5 10
      vertex 0 1 10
      vertex 3 5 10
    endloop
  endfacet
  facet normal 0 0 1
    outer loop
      vertex 0 1 10
      vertex -3 5 10
      vertex -0.173648 0.984807 10
    endloop
  endfacet
  facet normal 0 0 1
    outer loop
      vertex -0.173648 0.984807 10
      vertex -3 5 10
      vertex -0.34202 0.939692 10
    endloop
  endfacet
  facet normal 0 0 1
    outer loop
      vertex -0.34202 0.939692 10
      vertex -3 5 10
      vertex -0.5 0.866025 10
    endloop
  endfacet
  facet normal 0 0 1
    outer loop
      vertex -0.5 0.866025 10
      vertex -3 5 10
      vertex -0.642787 0.766044 10
    endloop
  endfacet
  facet normal 0 0 1
    outer loop
      vertex -0.939692 0.34202 10
      vertex -5 3 10
      vertex -0.984807 0.173648 10
    endloop
  endfacet
  facet normal 0 0 1
    outer loop
      vertex -0.866025 0.5 10
      vertex -5 3 10
      vertex -0.939692 0.34202 10
    endloop
  endfacet
  facet normal 0 0 1
    outer loop
      vertex -0.766044 0.642787 10
      vertex -5 3 10
      vertex -0.866025 0.5 10
    endloop
  endfacet
  facet normal -0 0 1
    outer loop
      vertex -5 3 10
      vertex -0.766044 0.642787 10
      vertex -3 5 10
    endloop
  endfacet
  facet normal 0 0 1
    outer loop
      vertex -0.642787 0.766044 10
      vertex -3 5 10
      vertex -0.766044 0.642787 10
    endloop
  endfacet
  facet normal 0 0 1
    outer loop
      vertex 4.53209 -4.28557 10
      vertex 3 -5 10
      vertex 4.28557 -4.53209 10
    endloop
  endfacet
  facet normal 0 0 1
    outer loop
      vertex 4.28557 -4.53209 10
      vertex 3 -5 10
      vertex 4 -4.73205 10
    endloop
  endfacet
  facet normal 0 0 1
    outer loop
      vertex 4 -4.73205 10
      vertex 3 -5 10
      vertex 3.68404 -4.87938 10
    endloop
  endfacet
  facet normal 0 0 1
    outer loop
      vertex 3.68404 -4.87938 10
      vertex 3 -5 10
      vertex 3.3473 -4.96961 10
    endloop
  endfacet
  facet normal -0 0 1
    outer loop
      vertex 0.642787 -0.766044 10
      vertex 3 -5 10
      vertex 0.766044 -0.642787 10
    endloop
  endfacet
  facet normal -0 0 1
    outer loop
      vertex 0.5 -0.866025 10
      vertex 3 -5 10
      vertex 0.642787 -0.766044 10
    endloop
  endfacet
  facet normal -0 0 1
    outer loop
      vertex 0.34202 -0.939692 10
      vertex 3 -5 10
      vertex 0.5 -0.866025 10
    endloop
  endfacet
  facet normal -0 0 1
    outer loop
      vertex 0.173648 -0.984807 10
      vertex 3 -5 10
      vertex 0.34202 -0.939692 10
    endloop
  endfacet
  facet normal -0 0 1
    outer loop
      vertex 0 -1 10
      vertex 3 -5 10
      vertex 0.173648 -0.984807 10
    endloop
  endfacet
  facet normal 0 0 1
    outer loop
      vertex -3 -5 10
      vertex 0 -1 10
      vertex -0.173648 -0.984807 10
    endloop
  endfacet
  facet normal 0 0 1
    outer loop
      vertex -3 -5 10
      vertex -0.173648 -0.984807 10
      vertex -0.34202 -0.939692 10
    endloop
  endfacet
  facet normal 0 0 1
    outer loop
      vertex -3 -5 10
      vertex -0.34202 -0.939692 10
      vertex -0.5 -0.866025 10
    endloop
  endfacet
  facet normal 0 0 1
    outer loop
      vertex -3 -5 10
      vertex -0.5 -0.866025 10
      vertex -0.642787 -0.766044 10
    endloop
  endfacet
  facet normal 0 0 1
    outer loop
      vertex -3 -5 10
      vertex -0.642787 -0.766044 10
      vertex -0.766044 -0.642787 10
    endloop
  endfacet
  facet normal 0 0 1
    outer loop
      vertex -0.984807 0.173648 10
      vertex -5 3 10
      vertex -1 0 10
    endloop
  endfacet
  facet normal 0 0 1
    outer loop
      vertex -5 -3 10
      vertex -1 0 10
      vertex -5 3 10
    endloop
  endfacet
  facet normal 0 0 1
    outer loop
      vertex 0 -1 10
      vertex -3 -5 10
      vertex 3 -5 10
    endloop
  endfacet
  facet normal 0 0 1
    outer loop
      vertex -5 -3 10
      vertex -0.766044 -0.642787 10
      vertex -0.866025 -0.5 10
    endloop
  endfacet
  facet normal 0 0 1
    outer loop
      vertex -5 -3 10
      vertex -0.866025 -0.5 10
      vertex -0.939692 -0.34202 10
    endloop
  endfacet
  facet normal 0 0 1
    outer loop
      vertex -1 0 10
      vertex -5 -3 10
      vertex -0.984807 -0.173648 10
    endloop
  endfacet
  facet normal 0 0 1
    outer loop
      vertex -5 3 10
      vertex -3 5 10
      vertex -3.3473 4.96961 10
    endloop
  endfacet
  facet normal 0 0 1
    outer loop
      vertex -0.984807 -0.173648 10
      vertex -5 -3 10
      vertex -0.939692 -0.34202 10
    endloop
  endfacet
  facet normal 0 0 1
    outer loop
      vertex -5 3 10
      vertex -3.3473 4.96961 10
      vertex -3.68404 4.87938 10
    endloop
  endfacet
  facet normal 0 0 1
    outer loop
      vertex -0.766044 -0.642787 10
      vertex -5 -3 10
      vertex -3 -5 10
    endloop
  endfacet
  facet normal 0 0 1
    outer loop
      vertex -5 3 10
      vertex -3.68404 4.87938 10
      vertex -4 4.73205 10
    endloop
  endfacet
  facet normal 0 0 1
    outer loop
      vertex -3 -5 10
      vertex -5 -3 10
      vertex -3.3473 -4.96961 10
    endloop
  endfacet
  facet normal 0 0 1
    outer loop
      vertex -5 3 10
      vertex -4 4.73205 10
      vertex -4.28557 4.53209 10
    endloop
  endfacet
  facet normal 0 0 1
    outer loop
      vertex -3.3473 -4.96961 10
      vertex -5 -3 10
      vertex -3.68404 -4.87938 10
    endloop
  endfacet
  facet normal 0 0 1
    outer loop
      vertex -5 3 10
      vertex -4.28557 4.53209 10
      vertex -4.53209 4.28557 10
    endloop
  endfacet
  facet normal 0 0 1
    outer loop
      vertex -3.68404 -4.87938 10
      vertex -5 -3 10
      vertex -4 -4.73205 10
    endloop
  endfacet
  facet normal 0 0 1
    outer loop
      vertex -5 3 10
      vertex -4.53209 4.28557 10
      vertex -4.73205 4 10
    endloop
  endfacet
  facet normal 0 0 1
    outer loop
      vertex -4 -4.73205 10
      vertex -5 -3 10
      vertex -4.28557 -4.53209 10
    endloop
  endfacet
  facet normal 0 0 1
    outer loop
      vertex -5 3 10
      vertex -4.73205 4 10
      vertex -4.87938 3.68404 10
    endloop
  endfacet
  facet normal 0 0 1
    outer loop
      vertex -4.28557 -4.53209 10
      vertex -5 -3 10
      vertex -4.53209 -4.28557 10
    endloop
  endfacet
  facet normal 0 0 1
    outer loop
      vertex -5 3 10
      vertex -4.87938 3.68404 10
      vertex -4.96961 3.3473 10
    endloop
  endfacet
  facet normal 0 0 1
    outer loop
      vertex -4.53209 -4.28557 10
      vertex -5 -3 10
      vertex -4.73205 -4 10
    endloop
  endfacet
  facet normal 0 0 1
    outer loop
      vertex -4.73205 -4 10
      vertex -5 -3 10
      vertex -4.87938 -3.68404 10
    endloop
  endfacet
  facet normal 0 0 1
    outer loop
      vertex -4.87938 -3.68404 10
      vertex -5 -3 10
      vertex -4.96961 -3.3473 10
    endloop
  endfacet
  facet normal 0.422607 0.906313 -0
    outer loop
      vertex -3.68404 -4.87938 10
      vertex -4 -4.73205 19
      vertex -3.68404 -4.87938 19
    endloop
  endfacet
  facet normal 0.422607 0.906313 0
    outer loop
      vertex -4 -4.73205 19
      vertex -3.68404 -4.87938 10
      vertex -4 -4.73205 10
    endloop
  endfacet
  facet normal 0.258821 -0.965925 0
    outer loop
      vertex -3.68404 4.87938 10
      vertex -3.3473 4.96961 19
      vertex -3.68404 4.87938 19
    endloop
  endfacet
  facet normal 0.258821 -0.965925 0
    outer loop
      vertex -3.3473 4.96961 19
      vertex -3.68404 4.87938 10
      vertex -3.3473 4.96961 10
    endloop
  endfacet
  facet normal 0.422607 -0.906313 0
    outer loop
      vertex -4 4.73205 10
      vertex -3.68404 4.87938 19
      vertex -4 4.73205 19
    endloop
  endfacet
  facet normal 0.422607 -0.906313 0
    outer loop
      vertex -3.68404 4.87938 19
      vertex -4 4.73205 10
      vertex -3.68404 4.87938 10
    endloop
  endfacet
  facet normal 0.996193 -0.0871705 0
    outer loop
      vertex -5 3 19
      vertex -4.96961 3.3473 10
      vertex -4.96961 3.3473 19
    endloop
  endfacet
  facet normal 0.996193 -0.0871705 0
    outer loop
      vertex -4.96961 3.3473 10
      vertex -5 3 19
      vertex -5 3 10
    endloop
  endfacet
  facet normal 0.57358 -0.81915 0
    outer loop
      vertex -4.28557 4.53209 10
      vertex -4 4.73205 19
      vertex -4.28557 4.53209 19
    endloop
  endfacet
  facet normal 0.57358 -0.81915 0
    outer loop
      vertex -4 4.73205 19
      vertex -4.28557 4.53209 10
      vertex -4 4.73205 10
    endloop
  endfacet
  facet normal 0.0871705 -0.996193 0
    outer loop
      vertex -3.3473 4.96961 10
      vertex -3 5 19
      vertex -3.3473 4.96961 19
    endloop
  endfacet
  facet normal 0.0871705 -0.996193 0
    outer loop
      vertex -3 5 19
      vertex -3.3473 4.96961 10
      vertex -3 5 10
    endloop
  endfacet
  facet normal 0.965925 -0.258821 0
    outer loop
      vertex -4.96961 3.3473 19
      vertex -4.87938 3.68404 10
      vertex -4.87938 3.68404 19
    endloop
  endfacet
  facet normal 0.965925 -0.258821 0
    outer loop
      vertex -4.87938 3.68404 10
      vertex -4.96961 3.3473 19
      vertex -4.96961 3.3473 10
    endloop
  endfacet
  facet normal 0.707107 -0.707107 0
    outer loop
      vertex -4.53209 4.28557 19
      vertex -4.28557 4.53209 10
      vertex -4.28557 4.53209 19
    endloop
  endfacet
  facet normal 0.707107 -0.707107 0
    outer loop
      vertex -4.28557 4.53209 10
      vertex -4.53209 4.28557 19
      vertex -4.53209 4.28557 10
    endloop
  endfacet
  facet normal 0.906313 -0.422607 0
    outer loop
      vertex -4.87938 3.68404 19
      vertex -4.73205 4 10
      vertex -4.73205 4 19
    endloop
  endfacet
  facet normal 0.906313 -0.422607 0
    outer loop
      vertex -4.73205 4 10
      vertex -4.87938 3.68404 19
      vertex -4.87938 3.68404 10
    endloop
  endfacet
  facet normal 0.81915 -0.57358 0
    outer loop
      vertex -4.73205 4 19
      vertex -4.53209 4.28557 10
      vertex -4.53209 4.28557 19
    endloop
  endfacet
  facet normal 0.81915 -0.57358 0
    outer loop
      vertex -4.53209 4.28557 10
      vertex -4.73205 4 19
      vertex -4.73205 4 10
    endloop
  endfacet
  facet normal -0.81915 0.57358 0
    outer loop
      vertex 4.53209 -4.28557 10
      vertex 4.73205 -4 19
      vertex 4.73205 -4 10
    endloop
  endfacet
  facet normal -0.81915 0.57358 0
    outer loop
      vertex 4.73205 -4 19
      vertex 4.53209 -4.28557 10
      vertex 4.53209 -4.28557 19
    endloop
  endfacet
  facet normal -0.996193 0.0871705 0
    outer loop
      vertex 4.96961 -3.3473 10
      vertex 5 -3 19
      vertex 5 -3 10
    endloop
  endfacet
  facet normal -0.996193 0.0871705 0
    outer loop
      vertex 5 -3 19
      vertex 4.96961 -3.3473 10
      vertex 4.96961 -3.3473 19
    endloop
  endfacet
  facet normal -0.965925 0.258821 0
    outer loop
      vertex 4.87938 -3.68404 10
      vertex 4.96961 -3.3473 19
      vertex 4.96961 -3.3473 10
    endloop
  endfacet
  facet normal -0.965925 0.258821 0
    outer loop
      vertex 4.96961 -3.3473 19
      vertex 4.87938 -3.68404 10
      vertex 4.87938 -3.68404 19
    endloop
  endfacet
  facet normal -0.258821 0.965925 0
    outer loop
      vertex 3.68404 -4.87938 10
      vertex 3.3473 -4.96961 19
      vertex 3.68404 -4.87938 19
    endloop
  endfacet
  facet normal -0.258821 0.965925 0
    outer loop
      vertex 3.3473 -4.96961 19
      vertex 3.68404 -4.87938 10
      vertex 3.3473 -4.96961 10
    endloop
  endfacet
  facet normal -0.906313 0.422607 0
    outer loop
      vertex 4.73205 -4 10
      vertex 4.87938 -3.68404 19
      vertex 4.87938 -3.68404 10
    endloop
  endfacet
  facet normal -0.906313 0.422607 0
    outer loop
      vertex 4.87938 -3.68404 19
      vertex 4.73205 -4 10
      vertex 4.73205 -4 19
    endloop
  endfacet
  facet normal -0.0871705 0.996193 0
    outer loop
      vertex 3.3473 -4.96961 10
      vertex 3 -5 19
      vertex 3.3473 -4.96961 19
    endloop
  endfacet
  facet normal -0.0871705 0.996193 0
    outer loop
      vertex 3 -5 19
      vertex 3.3473 -4.96961 10
      vertex 3 -5 10
    endloop
  endfacet
  facet normal -0.422607 0.906313 0
    outer loop
      vertex 4 -4.73205 10
      vertex 3.68404 -4.87938 19
      vertex 4 -4.73205 19
    endloop
  endfacet
  facet normal -0.422607 0.906313 0
    outer loop
      vertex 3.68404 -4.87938 19
      vertex 4 -4.73205 10
      vertex 3.68404 -4.87938 10
    endloop
  endfacet
  facet normal -0.57358 0.81915 0
    outer loop
      vertex 4.28557 -4.53209 10
      vertex 4 -4.73205 19
      vertex 4.28557 -4.53209 19
    endloop
  endfacet
  facet normal -0.57358 0.81915 0
    outer loop
      vertex 4 -4.73205 19
      vertex 4.28557 -4.53209 10
      vertex 4 -4.73205 10
    endloop
  endfacet
  facet normal -0.707107 0.707107 0
    outer loop
      vertex 4.28557 -4.53209 10
      vertex 4.53209 -4.28557 19
      vertex 4.53209 -4.28557 10
    endloop
  endfacet
  facet normal -0.707107 0.707107 0
    outer loop
      vertex 4.53209 -4.28557 19
      vertex 4.28557 -4.53209 10
      vertex 4.28557 -4.53209 19
    endloop
  endfacet
  facet normal -0.965925 -0.258821 0
    outer loop
      vertex 4.96961 3.3473 10
      vertex 4.87938 3.68404 19
      vertex 4.87938 3.68404 10
    endloop
  endfacet
  facet normal -0.965925 -0.258821 0
    outer loop
      vertex 4.87938 3.68404 19
      vertex 4.96961 3.3473 10
      vertex 4.96961 3.3473 19
    endloop
  endfacet
  facet normal -0.996193 -0.0871705 0
    outer loop
      vertex 5 3 10
      vertex 4.96961 3.3473 19
      vertex 4.96961 3.3473 10
    endloop
  endfacet
  facet normal -0.996193 -0.0871705 0
    outer loop
      vertex 4.96961 3.3473 19
      vertex 5 3 10
      vertex 5 3 19
    endloop
  endfacet
  facet normal -0.906313 -0.422607 0
    outer loop
      vertex 4.87938 3.68404 10
      vertex 4.73205 4 19
      vertex 4.73205 4 10
    endloop
  endfacet
  facet normal -0.906313 -0.422607 0
    outer loop
      vertex 4.73205 4 19
      vertex 4.87938 3.68404 10
      vertex 4.87938 3.68404 19
    endloop
  endfacet
  facet normal -0.81915 -0.57358 0
    outer loop
      vertex 4.73205 4 10
      vertex 4.53209 4.28557 19
      vertex 4.53209 4.28557 10
    endloop
  endfacet
  facet normal -0.81915 -0.57358 0
    outer loop
      vertex 4.53209 4.28557 19
      vertex 4.73205 4 10
      vertex 4.73205 4 19
    endloop
  endfacet
  facet normal -0.707107 -0.707107 0
    outer loop
      vertex 4.53209 4.28557 10
      vertex 4.28557 4.53209 19
      vertex 4.28557 4.53209 10
    endloop
  endfacet
  facet normal -0.707107 -0.707107 0
    outer loop
      vertex 4.28557 4.53209 19
      vertex 4.53209 4.28557 10
      vertex 4.53209 4.28557 19
    endloop
  endfacet
  facet normal -0.422607 -0.906313 0
    outer loop
      vertex 3.68404 4.87938 10
      vertex 4 4.73205 19
      vertex 3.68404 4.87938 19
    endloop
  endfacet
  facet normal -0.422607 -0.906313 -0
    outer loop
      vertex 4 4.73205 19
      vertex 3.68404 4.87938 10
      vertex 4 4.73205 10
    endloop
  endfacet
  facet normal -0.57358 -0.81915 0
    outer loop
      vertex 4 4.73205 10
      vertex 4.28557 4.53209 19
      vertex 4 4.73205 19
    endloop
  endfacet
  facet normal -0.57358 -0.81915 -0
    outer loop
      vertex 4.28557 4.53209 19
      vertex 4 4.73205 10
      vertex 4.28557 4.53209 10
    endloop
  endfacet
  facet normal -0.258821 -0.965925 0
    outer loop
      vertex 3.3473 4.96961 10
      vertex 3.68404 4.87938 19
      vertex 3.3473 4.96961 19
    endloop
  endfacet
  facet normal -0.258821 -0.965925 -0
    outer loop
      vertex 3.68404 4.87938 19
      vertex 3.3473 4.96961 10
      vertex 3.68404 4.87938 10
    endloop
  endfacet
  facet normal -0.0871705 -0.996193 0
    outer loop
      vertex 3 5 10
      vertex 3.3473 4.96961 19
      vertex 3 5 19
    endloop
  endfacet
  facet normal -0.0871705 -0.996193 -0
    outer loop
      vertex 3.3473 4.96961 19
      vertex 3 5 10
      vertex 3.3473 4.96961 10
    endloop
  endfacet
  facet normal 0 -1 0
    outer loop
      vertex -3 5 10
      vertex 3 5 19
      vertex -3 5 19
    endloop
  endfacet
  facet normal 0 -1 -0
    outer loop
      vertex 3 5 19
      vertex -3 5 10
      vertex 3 5 10
    endloop
  endfacet
  facet normal 0 1 -0
    outer loop
      vertex 3 -5 10
      vertex -3 -5 19
      vertex 3 -5 19
    endloop
  endfacet
  facet normal 0 1 0
    outer loop
      vertex -3 -5 19
      vertex 3 -5 10
      vertex -3 -5 10
    endloop
  endfacet
  facet normal -1 0 0
    outer loop
      vertex 5 -3 10
      vertex 5 3 19
      vertex 5 3 10
    endloop
  endfacet
  facet normal -1 -0 0
    outer loop
      vertex 5 3 19
      vertex 5 -3 10
      vertex 5 -3 19
    endloop
  endfacet
  facet normal 1 -0 0
    outer loop
      vertex -5 -3 19
      vertex -5 3 10
      vertex -5 3 19
    endloop
  endfacet
  facet normal 1 0 0
    outer loop
      vertex -5 3 10
      vertex -5 -3 19
      vertex -5 -3 10
    endloop
  endfacet
  facet normal -1 0 0
    outer loop
      vertex 1.95 -2.75 0
      vertex 1.95 2.75 9
      vertex 1.95 2.75 0
    endloop
  endfacet
  facet normal -1 -0 0
    outer loop
      vertex 1.95 2.75 9
      vertex 1.95 -2.75 0
      vertex 1.95 -2.75 9
    endloop
  endfacet
  facet normal 0 0 -1
    outer loop
      vertex 1.95 -2.75 9
      vertex 1 0 9
      vertex 1.95 2.75 9
    endloop
  endfacet
  facet normal 0 0 -1
    outer loop
      vertex 1.95 -2.75 9
      vertex 0.984807 -0.173648 9
      vertex 1 0 9
    endloop
  endfacet
  facet normal 0 0 -1
    outer loop
      vertex 1.95 -2.75 9
      vertex 0.939692 -0.34202 9
      vertex 0.984807 -0.173648 9
    endloop
  endfacet
  facet normal 0 0 -1
    outer loop
      vertex 1.95 -2.75 9
      vertex 0.866025 -0.5 9
      vertex 0.939692 -0.34202 9
    endloop
  endfacet
  facet normal 0 0 -1
    outer loop
      vertex 1.95 -2.75 9
      vertex 0.766044 -0.642787 9
      vertex 0.866025 -0.5 9
    endloop
  endfacet
  facet normal 0 0 -1
    outer loop
      vertex 1.95 -2.75 9
      vertex 0.642787 -0.766044 9
      vertex 0.766044 -0.642787 9
    endloop
  endfacet
  facet normal 0 0 -1
    outer loop
      vertex 1.95 -2.75 9
      vertex 0.5 -0.866025 9
      vertex 0.642787 -0.766044 9
    endloop
  endfacet
  facet normal 0 0 -1
    outer loop
      vertex 1.95 -2.75 9
      vertex 0.34202 -0.939692 9
      vertex 0.5 -0.866025 9
    endloop
  endfacet
  facet normal 0 0 -1
    outer loop
      vertex 1.95 -2.75 9
      vertex 0.173648 -0.984807 9
      vertex 0.34202 -0.939692 9
    endloop
  endfacet
  facet normal 0 0 -1
    outer loop
      vertex 1.95 -2.75 9
      vertex 0 -1 9
      vertex 0.173648 -0.984807 9
    endloop
  endfacet
  facet normal 0 0 -1
    outer loop
      vertex -1.95 -2.75 9
      vertex 0 -1 9
      vertex 1.95 -2.75 9
    endloop
  endfacet
  facet normal -0 0 -1
    outer loop
      vertex 0 -1 9
      vertex -1.95 -2.75 9
      vertex -0.173648 -0.984807 9
    endloop
  endfacet
  facet normal -0 0 -1
    outer loop
      vertex -0.173648 -0.984807 9
      vertex -1.95 -2.75 9
      vertex -0.34202 -0.939692 9
    endloop
  endfacet
  facet normal -0 0 -1
    outer loop
      vertex -0.34202 -0.939692 9
      vertex -1.95 -2.75 9
      vertex -0.5 -0.866025 9
    endloop
  endfacet
  facet normal -0 0 -1
    outer loop
      vertex -0.984807 -0.173648 9
      vertex -1.95 -2.75 9
      vertex -1 0 9
    endloop
  endfacet
  facet normal -0 0 -1
    outer loop
      vertex -0.939692 -0.34202 9
      vertex -1.95 -2.75 9
      vertex -0.984807 -0.173648 9
    endloop
  endfacet
  facet normal -0 0 -1
    outer loop
      vertex -0.866025 -0.5 9
      vertex -1.95 -2.75 9
      vertex -0.939692 -0.34202 9
    endloop
  endfacet
  facet normal -0 0 -1
    outer loop
      vertex -0.766044 -0.642787 9
      vertex -1.95 -2.75 9
      vertex -0.866025 -0.5 9
    endloop
  endfacet
  facet normal -0 0 -1
    outer loop
      vertex -0.642787 -0.766044 9
      vertex -1.95 -2.75 9
      vertex -0.766044 -0.642787 9
    endloop
  endfacet
  facet normal -0 0 -1
    outer loop
      vertex -0.5 -0.866025 9
      vertex -1.95 -2.75 9
      vertex -0.642787 -0.766044 9
    endloop
  endfacet
  facet normal 0 0 -1
    outer loop
      vertex 0.984807 0.173648 9
      vertex 1.95 2.75 9
      vertex 1 0 9
    endloop
  endfacet
  facet normal 0 0 -1
    outer loop
      vertex 0.939692 0.34202 9
      vertex 1.95 2.75 9
      vertex 0.984807 0.173648 9
    endloop
  endfacet
  facet normal 0 0 -1
    outer loop
      vertex 0.866025 0.5 9
      vertex 1.95 2.75 9
      vertex 0.939692 0.34202 9
    endloop
  endfacet
  facet normal 0 0 -1
    outer loop
      vertex 0.766044 0.642787 9
      vertex 1.95 2.75 9
      vertex 0.866025 0.5 9
    endloop
  endfacet
  facet normal 0 0 -1
    outer loop
      vertex 0.642787 0.766044 9
      vertex 1.95 2.75 9
      vertex 0.766044 0.642787 9
    endloop
  endfacet
  facet normal 0 0 -1
    outer loop
      vertex 0.5 0.866025 9
      vertex 1.95 2.75 9
      vertex 0.642787 0.766044 9
    endloop
  endfacet
  facet normal 0 0 -1
    outer loop
      vertex 0.34202 0.939692 9
      vertex 1.95 2.75 9
      vertex 0.5 0.866025 9
    endloop
  endfacet
  facet normal 0 0 -1
    outer loop
      vertex 0.173648 0.984807 9
      vertex 1.95 2.75 9
      vertex 0.34202 0.939692 9
    endloop
  endfacet
  facet normal 0 0 -1
    outer loop
      vertex 0 1 9
      vertex 1.95 2.75 9
      vertex 0.173648 0.984807 9
    endloop
  endfacet
  facet normal 0 0 -1
    outer loop
      vertex -1.95 2.75 9
      vertex 0 1 9
      vertex -0.173648 0.984807 9
    endloop
  endfacet
  facet normal 0 0 -1
    outer loop
      vertex -1.95 2.75 9
      vertex -0.173648 0.984807 9
      vertex -0.34202 0.939692 9
    endloop
  endfacet
  facet normal 0 0 -1
    outer loop
      vertex -1.95 2.75 9
      vertex -0.34202 0.939692 9
      vertex -0.5 0.866025 9
    endloop
  endfacet
  facet normal 0 0 -1
    outer loop
      vertex -1.95 2.75 9
      vertex -0.5 0.866025 9
      vertex -0.642787 0.766044 9
    endloop
  endfacet
  facet normal 0 0 -1
    outer loop
      vertex -1.95 2.75 9
      vertex -1 0 9
      vertex -1.95 -2.75 9
    endloop
  endfacet
  facet normal 0 0 -1
    outer loop
      vertex -1 0 9
      vertex -1.95 2.75 9
      vertex -0.984807 0.173648 9
    endloop
  endfacet
  facet normal 0 0 -1
    outer loop
      vertex 0 1 9
      vertex -1.95 2.75 9
      vertex 1.95 2.75 9
    endloop
  endfacet
  facet normal 0 0 -1
    outer loop
      vertex -0.766044 0.642787 9
      vertex -1.95 2.75 9
      vertex -0.642787 0.766044 9
    endloop
  endfacet
  facet normal 0 0 -1
    outer loop
      vertex -0.866025 0.5 9
      vertex -1.95 2.75 9
      vertex -0.766044 0.642787 9
    endloop
  endfacet
  facet normal 0 0 -1
    outer loop
      vertex -0.939692 0.34202 9
      vertex -1.95 2.75 9
      vertex -0.866025 0.5 9
    endloop
  endfacet
  facet normal 0 0 -1
    outer loop
      vertex -0.984807 0.173648 9
      vertex -1.95 2.75 9
      vertex -0.939692 0.34202 9
    endloop
  endfacet
  facet normal 1 -0 0
    outer loop
      vertex -1.95 -2.75 9
      vertex -1.95 2.75 0
      vertex -1.95 2.75 9
    endloop
  endfacet
  facet normal 1 0 0
    outer loop
      vertex -1.95 2.75 0
      vertex -1.95 -2.75 9
      vertex -1.95 -2.75 0
    endloop
  endfacet
  facet normal 0 -1 0
    outer loop
      vertex -1.95 2.75 0
      vertex 1.95 2.75 9
      vertex -1.95 2.75 9
    endloop
  endfacet
  facet normal 0 -1 -0
    outer loop
      vertex 1.95 2.75 9
      vertex -1.95 2.75 0
      vertex 1.95 2.75 0
    endloop
  endfacet
  facet normal 0 1 -0
    outer loop
      vertex 1.95 -2.75 0
      vertex -1.95 -2.75 9
      vertex 1.95 -2.75 9
    endloop
  endfacet
  facet normal 0 1 0
    outer loop
      vertex -1.95 -2.75 9
      vertex 1.95 -2.75 0
      vertex -1.95 -2.75 0
    endloop
  endfacet
  facet normal 0.906308 -0.422617 0
    outer loop
      vertex -0.939692 0.34202 10
      vertex -0.866025 0.5 9
      vertex -0.866025 0.5 10
    endloop
  endfacet
  facet normal 0.906308 -0.422617 0
    outer loop
      vertex -0.866025 0.5 9
      vertex -0.939692 0.34202 10
      vertex -0.939692 0.34202 9
    endloop
  endfacet
  facet normal -0.0871601 0.996194 0
    outer loop
      vertex 0.173648 -0.984807 9
      vertex 0 -1 10
      vertex 0.173648 -0.984807 10
    endloop
  endfacet
  facet normal -0.0871601 0.996194 0
    outer loop
      vertex 0 -1 10
      vertex 0.173648 -0.984807 9
      vertex 0 -1 9
    endloop
  endfacet
  facet normal -0.965926 -0.258818 0
    outer loop
      vertex 0.984807 0.173648 9
      vertex 0.939692 0.34202 10
      vertex 0.939692 0.34202 9
    endloop
  endfacet
  facet normal -0.965926 -0.258818 0
    outer loop
      vertex 0.939692 0.34202 10
      vertex 0.984807 0.173648 9
      vertex 0.984807 0.173648 10
    endloop
  endfacet
  facet normal -0.996194 -0.0871601 0
    outer loop
      vertex 1 0 9
      vertex 0.984807 0.173648 10
      vertex 0.984807 0.173648 9
    endloop
  endfacet
  facet normal -0.996194 -0.0871601 0
    outer loop
      vertex 0.984807 0.173648 10
      vertex 1 0 9
      vertex 1 0 10
    endloop
  endfacet
  facet normal -0.906308 -0.422617 0
    outer loop
      vertex 0.939692 0.34202 9
      vertex 0.866025 0.5 10
      vertex 0.866025 0.5 9
    endloop
  endfacet
  facet normal -0.906308 -0.422617 0
    outer loop
      vertex 0.866025 0.5 10
      vertex 0.939692 0.34202 9
      vertex 0.939692 0.34202 10
    endloop
  endfacet
  facet normal -0.996194 0.0871601 0
    outer loop
      vertex 0.984807 -0.173648 9
      vertex 1 0 10
      vertex 1 0 9
    endloop
  endfacet
  facet normal -0.996194 0.0871601 0
    outer loop
      vertex 1 0 10
      vertex 0.984807 -0.173648 9
      vertex 0.984807 -0.173648 10
    endloop
  endfacet
  facet normal 0.996194 -0.0871601 0
    outer loop
      vertex -1 0 10
      vertex -0.984807 0.173648 9
      vertex -0.984807 0.173648 10
    endloop
  endfacet
  facet normal 0.996194 -0.0871601 0
    outer loop
      vertex -0.984807 0.173648 9
      vertex -1 0 10
      vertex -1 0 9
    endloop
  endfacet
  facet normal 0.965926 -0.258818 0
    outer loop
      vertex -0.984807 0.173648 10
      vertex -0.939692 0.34202 9
      vertex -0.939692 0.34202 10
    endloop
  endfacet
  facet normal 0.965926 -0.258818 0
    outer loop
      vertex -0.939692 0.34202 9
      vertex -0.984807 0.173648 10
      vertex -0.984807 0.173648 9
    endloop
  endfacet
  facet normal -0.819151 -0.573578 0
    outer loop
      vertex 0.866025 0.5 9
      vertex 0.766044 0.642787 10
      vertex 0.766044 0.642787 9
    endloop
  endfacet
  facet normal -0.819151 -0.573578 0
    outer loop
      vertex 0.766044 0.642787 10
      vertex 0.866025 0.5 9
      vertex 0.866025 0.5 10
    endloop
  endfacet
  facet normal -0.707107 -0.707107 0
    outer loop
      vertex 0.766044 0.642787 9
      vertex 0.642787 0.766044 10
      vertex 0.642787 0.766044 9
    endloop
  endfacet
  facet normal -0.707107 -0.707107 0
    outer loop
      vertex 0.642787 0.766044 10
      vertex 0.766044 0.642787 9
      vertex 0.766044 0.642787 10
    endloop
  endfacet
  facet normal 0.422617 -0.906308 0
    outer loop
      vertex -0.5 0.866025 9
      vertex -0.34202 0.939692 10
      vertex -0.5 0.866025 10
    endloop
  endfacet
  facet normal 0.422617 -0.906308 0
    outer loop
      vertex -0.34202 0.939692 10
      vertex -0.5 0.866025 9
      vertex -0.34202 0.939692 9
    endloop
  endfacet
  facet normal -0.258818 0.965926 0
    outer loop
      vertex 0.34202 -0.939692 9
      vertex 0.173648 -0.984807 10
      vertex 0.34202 -0.939692 10
    endloop
  endfacet
  facet normal -0.258818 0.965926 0
    outer loop
      vertex 0.173648 -0.984807 10
      vertex 0.34202 -0.939692 9
      vertex 0.173648 -0.984807 9
    endloop
  endfacet
  facet normal 0.996194 0.0871601 0
    outer loop
      vertex -0.984807 -0.173648 10
      vertex -1 0 9
      vertex -1 0 10
    endloop
  endfacet
  facet normal 0.996194 0.0871601 0
    outer loop
      vertex -1 0 9
      vertex -0.984807 -0.173648 10
      vertex -0.984807 -0.173648 9
    endloop
  endfacet
  facet normal -0.819151 0.573578 0
    outer loop
      vertex 0.766044 -0.642787 9
      vertex 0.866025 -0.5 10
      vertex 0.866025 -0.5 9
    endloop
  endfacet
  facet normal -0.819151 0.573578 0
    outer loop
      vertex 0.866025 -0.5 10
      vertex 0.766044 -0.642787 9
      vertex 0.766044 -0.642787 10
    endloop
  endfacet
  facet normal 0.0871601 0.996194 -0
    outer loop
      vertex 0 -1 9
      vertex -0.173648 -0.984807 10
      vertex 0 -1 10
    endloop
  endfacet
  facet normal 0.0871601 0.996194 0
    outer loop
      vertex -0.173648 -0.984807 10
      vertex 0 -1 9
      vertex -0.173648 -0.984807 9
    endloop
  endfacet
  facet normal -0.906308 0.422617 0
    outer loop
      vertex 0.866025 -0.5 9
      vertex 0.939692 -0.34202 10
      vertex 0.939692 -0.34202 9
    endloop
  endfacet
  facet normal -0.906308 0.422617 0
    outer loop
      vertex 0.939692 -0.34202 10
      vertex 0.866025 -0.5 9
      vertex 0.866025 -0.5 10
    endloop
  endfacet
  facet normal -0.422617 -0.906308 0
    outer loop
      vertex 0.34202 0.939692 9
      vertex 0.5 0.866025 10
      vertex 0.34202 0.939692 10
    endloop
  endfacet
  facet normal -0.422617 -0.906308 -0
    outer loop
      vertex 0.5 0.866025 10
      vertex 0.34202 0.939692 9
      vertex 0.5 0.866025 9
    endloop
  endfacet
  facet normal 0.965926 0.258818 0
    outer loop
      vertex -0.939692 -0.34202 10
      vertex -0.984807 -0.173648 9
      vertex -0.984807 -0.173648 10
    endloop
  endfacet
  facet normal 0.965926 0.258818 0
    outer loop
      vertex -0.984807 -0.173648 9
      vertex -0.939692 -0.34202 10
      vertex -0.939692 -0.34202 9
    endloop
  endfacet
  facet normal 0.422617 0.906308 -0
    outer loop
      vertex -0.34202 -0.939692 9
      vertex -0.5 -0.866025 10
      vertex -0.34202 -0.939692 10
    endloop
  endfacet
  facet normal 0.422617 0.906308 0
    outer loop
      vertex -0.5 -0.866025 10
      vertex -0.34202 -0.939692 9
      vertex -0.5 -0.866025 9
    endloop
  endfacet
  facet normal -0.0871601 -0.996194 0
    outer loop
      vertex 0 1 9
      vertex 0.173648 0.984807 10
      vertex 0 1 10
    endloop
  endfacet
  facet normal -0.0871601 -0.996194 -0
    outer loop
      vertex 0.173648 0.984807 10
      vertex 0 1 9
      vertex 0.173648 0.984807 9
    endloop
  endfacet
  facet normal 0.573578 -0.819151 0
    outer loop
      vertex -0.642787 0.766044 9
      vertex -0.5 0.866025 10
      vertex -0.642787 0.766044 10
    endloop
  endfacet
  facet normal 0.573578 -0.819151 0
    outer loop
      vertex -0.5 0.866025 10
      vertex -0.642787 0.766044 9
      vertex -0.5 0.866025 9
    endloop
  endfacet
  facet normal 0.707107 -0.707107 0
    outer loop
      vertex -0.766044 0.642787 10
      vertex -0.642787 0.766044 9
      vertex -0.642787 0.766044 10
    endloop
  endfacet
  facet normal 0.707107 -0.707107 0
    outer loop
      vertex -0.642787 0.766044 9
      vertex -0.766044 0.642787 10
      vertex -0.766044 0.642787 9
    endloop
  endfacet
  facet normal -0.573578 -0.819151 0
    outer loop
      vertex 0.5 0.866025 9
      vertex 0.642787 0.766044 10
      vertex 0.5 0.866025 10
    endloop
  endfacet
  facet normal -0.573578 -0.819151 -0
    outer loop
      vertex 0.642787 0.766044 10
      vertex 0.5 0.866025 9
      vertex 0.642787 0.766044 9
    endloop
  endfacet
  facet normal 0.258818 -0.965926 0
    outer loop
      vertex -0.34202 0.939692 9
      vertex -0.173648 0.984807 10
      vertex -0.34202 0.939692 10
    endloop
  endfacet
  facet normal 0.258818 -0.965926 0
    outer loop
      vertex -0.173648 0.984807 10
      vertex -0.34202 0.939692 9
      vertex -0.173648 0.984807 9
    endloop
  endfacet
  facet normal 0.573578 0.819151 -0
    outer loop
      vertex -0.5 -0.866025 9
      vertex -0.642787 -0.766044 10
      vertex -0.5 -0.866025 10
    endloop
  endfacet
  facet normal 0.573578 0.819151 0
    outer loop
      vertex -0.642787 -0.766044 10
      vertex -0.5 -0.866025 9
      vertex -0.642787 -0.766044 9
    endloop
  endfacet
  facet normal 0.0871601 -0.996194 0
    outer loop
      vertex -0.173648 0.984807 9
      vertex 0 1 10
      vertex -0.173648 0.984807 10
    endloop
  endfacet
  facet normal 0.0871601 -0.996194 0
    outer loop
      vertex 0 1 10
      vertex -0.173648 0.984807 9
      vertex 0 1 9
    endloop
  endfacet
  facet normal 0.906308 0.422617 0
    outer loop
      vertex -0.866025 -0.5 10
      vertex -0.939692 -0.34202 9
      vertex -0.939692 -0.34202 10
    endloop
  endfacet
  facet normal 0.906308 0.422617 0
    outer loop
      vertex -0.939692 -0.34202 9
      vertex -0.866025 -0.5 10
      vertex -0.866025 -0.5 9
    endloop
  endfacet
  facet normal -0.965926 0.258818 0
    outer loop
      vertex 0.939692 -0.34202 9
      vertex 0.984807 -0.173648 10
      vertex 0.984807 -0.173648 9
    endloop
  endfacet
  facet normal -0.965926 0.258818 0
    outer loop
      vertex 0.984807 -0.173648 10
      vertex 0.939692 -0.34202 9
      vertex 0.939692 -0.34202 10
    endloop
  endfacet
  facet normal 0.819151 0.573578 0
    outer loop
      vertex -0.766044 -0.642787 10
      vertex -0.866025 -0.5 9
      vertex -0.866025 -0.5 10
    endloop
  endfacet
  facet normal 0.819151 0.573578 0
    outer loop
      vertex -0.866025 -0.5 9
      vertex -0.766044 -0.642787 10
      vertex -0.766044 -0.642787 9
    endloop
  endfacet
  facet normal -0.422617 0.906308 0
    outer loop
      vertex 0.5 -0.866025 9
      vertex 0.34202 -0.939692 10
      vertex 0.5 -0.866025 10
    endloop
  endfacet
  facet normal -0.422617 0.906308 0
    outer loop
      vertex 0.34202 -0.939692 10
      vertex 0.5 -0.866025 9
      vertex 0.34202 -0.939692 9
    endloop
  endfacet
  facet normal -0.258818 -0.965926 0
    outer loop
      vertex 0.173648 0.984807 9
      vertex 0.34202 0.939692 10
      vertex 0.173648 0.984807 10
    endloop
  endfacet
  facet normal -0.258818 -0.965926 -0
    outer loop
      vertex 0.34202 0.939692 10
      vertex 0.173648 0.984807 9
      vertex 0.34202 0.939692 9
    endloop
  endfacet
  facet normal 0.707107 0.707107 0
    outer loop
      vertex -0.642787 -0.766044 10
      vertex -0.766044 -0.642787 9
      vertex -0.766044 -0.642787 10
    endloop
  endfacet
  facet normal 0.707107 0.707107 0
    outer loop
      vertex -0.766044 -0.642787 9
      vertex -0.642787 -0.766044 10
      vertex -0.642787 -0.766044 9
    endloop
  endfacet
  facet normal 0.258818 0.965926 -0
    outer loop
      vertex -0.173648 -0.984807 9
      vertex -0.34202 -0.939692 10
      vertex -0.173648 -0.984807 10
    endloop
  endfacet
  facet normal 0.258818 0.965926 0
    outer loop
      vertex -0.34202 -0.939692 10
      vertex -0.173648 -0.984807 9
      vertex -0.34202 -0.939692 9
    endloop
  endfacet
  facet normal -0.707107 0.707107 0
    outer loop
      vertex 0.642787 -0.766044 9
      vertex 0.766044 -0.642787 10
      vertex 0.766044 -0.642787 9
    endloop
  endfacet
  facet normal -0.707107 0.707107 0
    outer loop
      vertex 0.766044 -0.642787 10
      vertex 0.642787 -0.766044 9
      vertex 0.642787 -0.766044 10
    endloop
  endfacet
  facet normal -0.573578 0.819151 0
    outer loop
      vertex 0.642787 -0.766044 9
      vertex 0.5 -0.866025 10
      vertex 0.642787 -0.766044 10
    endloop
  endfacet
  facet normal -0.573578 0.819151 0
    outer loop
      vertex 0.5 -0.866025 10
      vertex 0.642787 -0.766044 9
      vertex 0.5 -0.866025 9
    endloop
  endfacet
  facet normal 0.819151 -0.573578 0
    outer loop
      vertex -0.866025 0.5 10
      vertex -0.766044 0.642787 9
      vertex -0.766044 0.642787 10
    endloop
  endfacet
  facet normal 0.819151 -0.573578 0
    outer loop
      vertex -0.766044 0.642787 9
      vertex -0.866025 0.5 10
      vertex -0.866025 0.5 9
    endloop
  endfacet
endsolid OpenSCAD_Model
